<?xml version='1.0' encoding='UTF-8'?>
<svg width="45mm" height="45mm" version="1.1" viewBox="0 0 45 45" xmlns="http://www.w3.org/2000/svg"><path d="M2,2H3V3H2zM3,2H4V3H3zM4,2H5V3H4zM5,2H6V3H5zM6,2H7V3H6zM7,2H8V3H7zM8,2H9V3H8zM10,2H11V3H10zM11,2H12V3H11zM12,2H13V3H12zM14,2H15V3H14zM20,2H21V3H20zM26,2H27V3H26zM27,2H28V3H27zM30,2H31V3H30zM32,2H33V3H32zM33,2H34V3H33zM34,2H35V3H34zM36,2H37V3H36zM37,2H38V3H37zM38,2H39V3H38zM39,2H40V3H39zM40,2H41V3H40zM41,2H42V3H41zM42,2H43V3H42zM2,3H3V4H2zM8,3H9V4H8zM10,3H11V4H10zM12,3H13V4H12zM15,3H16V4H15zM17,3H18V4H17zM19,3H20V4H19zM20,3H21V4H20zM23,3H24V4H23zM24,3H25V4H24zM27,3H28V4H27zM28,3H29V4H28zM29,3H30V4H29zM30,3H31V4H30zM32,3H33V4H32zM36,3H37V4H36zM42,3H43V4H42zM2,4H3V5H2zM4,4H5V5H4zM5,4H6V5H5zM6,4H7V5H6zM8,4H9V5H8zM10,4H11V5H10zM11,4H12V5H11zM18,4H19V5H18zM21,4H22V5H21zM24,4H25V5H24zM27,4H28V5H27zM30,4H31V5H30zM33,4H34V5H33zM36,4H37V5H36zM38,4H39V5H38zM39,4H40V5H39zM40,4H41V5H40zM42,4H43V5H42zM2,5H3V6H2zM4,5H5V6H4zM5,5H6V6H5zM6,5H7V6H6zM8,5H9V6H8zM13,5H14V6H13zM14,5H15V6H14zM15,5H16V6H15zM18,5H19V6H18zM23,5H24V6H23zM25,5H26V6H25zM26,5H27V6H26zM28,5H29V6H28zM32,5H33V6H32zM34,5H35V6H34zM36,5H37V6H36zM38,5H39V6H38zM39,5H40V6H39zM40,5H41V6H40zM42,5H43V6H42zM2,6H3V7H2zM4,6H5V7H4zM5,6H6V7H5zM6,6H7V7H6zM8,6H9V7H8zM11,6H12V7H11zM12,6H13V7H12zM13,6H14V7H13zM14,6H15V7H14zM16,6H17V7H16zM17,6H18V7H17zM19,6H20V7H19zM21,6H22V7H21zM22,6H23V7H22zM23,6H24V7H23zM33,6H34V7H33zM36,6H37V7H36zM38,6H39V7H38zM39,6H40V7H39zM40,6H41V7H40zM42,6H43V7H42zM2,7H3V8H2zM8,7H9V8H8zM10,7H11V8H10zM12,7H13V8H12zM16,7H17V8H16zM17,7H18V8H17zM18,7H19V8H18zM19,7H20V8H19zM20,7H21V8H20zM24,7H25V8H24zM29,7H30V8H29zM31,7H32V8H31zM36,7H37V8H36zM42,7H43V8H42zM2,8H3V9H2zM3,8H4V9H3zM4,8H5V9H4zM5,8H6V9H5zM6,8H7V9H6zM7,8H8V9H7zM8,8H9V9H8zM10,8H11V9H10zM12,8H13V9H12zM14,8H15V9H14zM16,8H17V9H16zM18,8H19V9H18zM20,8H21V9H20zM22,8H23V9H22zM24,8H25V9H24zM26,8H27V9H26zM28,8H29V9H28zM30,8H31V9H30zM32,8H33V9H32zM34,8H35V9H34zM36,8H37V9H36zM37,8H38V9H37zM38,8H39V9H38zM39,8H40V9H39zM40,8H41V9H40zM41,8H42V9H41zM42,8H43V9H42zM10,9H11V10H10zM11,9H12V10H11zM13,9H14V10H13zM14,9H15V10H14zM17,9H18V10H17zM18,9H19V10H18zM19,9H20V10H19zM21,9H22V10H21zM22,9H23V10H22zM25,9H26V10H25zM26,9H27V10H26zM29,9H30V10H29zM34,9H35V10H34zM4,10H5V11H4zM5,10H6V11H5zM6,10H7V11H6zM8,10H9V11H8zM10,10H11V11H10zM12,10H13V11H12zM13,10H14V11H13zM15,10H16V11H15zM16,10H17V11H16zM17,10H18V11H17zM18,10H19V11H18zM23,10H24V11H23zM25,10H26V11H25zM26,10H27V11H26zM27,10H28V11H27zM29,10H30V11H29zM31,10H32V11H31zM35,10H36V11H35zM36,10H37V11H36zM37,10H38V11H37zM40,10H41V11H40zM41,10H42V11H41zM42,10H43V11H42zM2,11H3V12H2zM4,11H5V12H4zM7,11H8V12H7zM11,11H12V12H11zM16,11H17V12H16zM18,11H19V12H18zM19,11H20V12H19zM20,11H21V12H20zM21,11H22V12H21zM24,11H25V12H24zM26,11H27V12H26zM28,11H29V12H28zM30,11H31V12H30zM32,11H33V12H32zM33,11H34V12H33zM34,11H35V12H34zM36,11H37V12H36zM37,11H38V12H37zM38,11H39V12H38zM40,11H41V12H40zM41,11H42V12H41zM42,11H43V12H42zM3,12H4V13H3zM6,12H7V13H6zM7,12H8V13H7zM8,12H9V13H8zM10,12H11V13H10zM16,12H17V13H16zM18,12H19V13H18zM20,12H21V13H20zM23,12H24V13H23zM27,12H28V13H27zM29,12H30V13H29zM30,12H31V13H30zM31,12H32V13H31zM34,12H35V13H34zM35,12H36V13H35zM37,12H38V13H37zM41,12H42V13H41zM2,13H3V14H2zM10,13H11V14H10zM12,13H13V14H12zM17,13H18V14H17zM18,13H19V14H18zM20,13H21V14H20zM21,13H22V14H21zM22,13H23V14H22zM26,13H27V14H26zM27,13H28V14H27zM29,13H30V14H29zM30,13H31V14H30zM33,13H34V14H33zM34,13H35V14H34zM36,13H37V14H36zM37,13H38V14H37zM39,13H40V14H39zM2,14H3V15H2zM3,14H4V15H3zM4,14H5V15H4zM6,14H7V15H6zM7,14H8V15H7zM8,14H9V15H8zM15,14H16V15H15zM16,14H17V15H16zM17,14H18V15H17zM20,14H21V15H20zM23,14H24V15H23zM26,14H27V15H26zM27,14H28V15H27zM28,14H29V15H28zM29,14H30V15H29zM30,14H31V15H30zM31,14H32V15H31zM32,14H33V15H32zM33,14H34V15H33zM35,14H36V15H35zM37,14H38V15H37zM39,14H40V15H39zM40,14H41V15H40zM3,15H4V16H3zM4,15H5V16H4zM6,15H7V16H6zM7,15H8V16H7zM9,15H10V16H9zM11,15H12V16H11zM12,15H13V16H12zM14,15H15V16H14zM15,15H16V16H15zM16,15H17V16H16zM17,15H18V16H17zM22,15H23V16H22zM23,15H24V16H23zM25,15H26V16H25zM27,15H28V16H27zM28,15H29V16H28zM29,15H30V16H29zM31,15H32V16H31zM34,15H35V16H34zM35,15H36V16H35zM37,15H38V16H37zM38,15H39V16H38zM42,15H43V16H42zM6,16H7V17H6zM8,16H9V17H8zM10,16H11V17H10zM11,16H12V17H11zM16,16H17V17H16zM17,16H18V17H17zM18,16H19V17H18zM20,16H21V17H20zM21,16H22V17H21zM23,16H24V17H23zM25,16H26V17H25zM28,16H29V17H28zM29,16H30V17H29zM30,16H31V17H30zM33,16H34V17H33zM35,16H36V17H35zM37,16H38V17H37zM39,16H40V17H39zM40,16H41V17H40zM3,17H4V18H3zM4,17H5V18H4zM5,17H6V18H5zM6,17H7V18H6zM7,17H8V18H7zM10,17H11V18H10zM11,17H12V18H11zM12,17H13V18H12zM13,17H14V18H13zM18,17H19V18H18zM19,17H20V18H19zM20,17H21V18H20zM22,17H23V18H22zM25,17H26V18H25zM26,17H27V18H26zM27,17H28V18H27zM28,17H29V18H28zM29,17H30V18H29zM33,17H34V18H33zM34,17H35V18H34zM36,17H37V18H36zM37,17H38V18H37zM39,17H40V18H39zM42,17H43V18H42zM2,18H3V19H2zM3,18H4V19H3zM4,18H5V19H4zM5,18H6V19H5zM7,18H8V19H7zM8,18H9V19H8zM9,18H10V19H9zM10,18H11V19H10zM11,18H12V19H11zM12,18H13V19H12zM13,18H14V19H13zM15,18H16V19H15zM17,18H18V19H17zM22,18H23V19H22zM24,18H25V19H24zM26,18H27V19H26zM27,18H28V19H27zM29,18H30V19H29zM31,18H32V19H31zM32,18H33V19H32zM33,18H34V19H33zM34,18H35V19H34zM35,18H36V19H35zM37,18H38V19H37zM40,18H41V19H40zM41,18H42V19H41zM2,19H3V20H2zM3,19H4V20H3zM9,19H10V20H9zM10,19H11V20H10zM11,19H12V20H11zM13,19H14V20H13zM14,19H15V20H14zM17,19H18V20H17zM18,19H19V20H18zM19,19H20V20H19zM21,19H22V20H21zM23,19H24V20H23zM24,19H25V20H24zM25,19H26V20H25zM27,19H28V20H27zM30,19H31V20H30zM31,19H32V20H31zM32,19H33V20H32zM33,19H34V20H33zM34,19H35V20H34zM36,19H37V20H36zM37,19H38V20H37zM38,19H39V20H38zM39,19H40V20H39zM41,19H42V20H41zM42,19H43V20H42zM2,20H3V21H2zM3,20H4V21H3zM4,20H5V21H4zM7,20H8V21H7zM8,20H9V21H8zM15,20H16V21H15zM17,20H18V21H17zM23,20H24V21H23zM24,20H25V21H24zM26,20H27V21H26zM27,20H28V21H27zM29,20H30V21H29zM31,20H32V21H31zM34,20H35V21H34zM35,20H36V21H35zM38,20H39V21H38zM39,20H40V21H39zM2,21H3V22H2zM4,21H5V22H4zM7,21H8V22H7zM13,21H14V22H13zM18,21H19V22H18zM19,21H20V22H19zM22,21H23V22H22zM25,21H26V22H25zM26,21H27V22H26zM28,21H29V22H28zM31,21H32V22H31zM32,21H33V22H32zM36,21H37V22H36zM38,21H39V22H38zM39,21H40V22H39zM41,21H42V22H41zM42,21H43V22H42zM2,22H3V23H2zM4,22H5V23H4zM5,22H6V23H5zM6,22H7V23H6zM7,22H8V23H7zM8,22H9V23H8zM11,22H12V23H11zM12,22H13V23H12zM15,22H16V23H15zM16,22H17V23H16zM17,22H18V23H17zM18,22H19V23H18zM23,22H24V23H23zM26,22H27V23H26zM27,22H28V23H27zM29,22H30V23H29zM30,22H31V23H30zM34,22H35V23H34zM40,22H41V23H40zM42,22H43V23H42zM2,23H3V24H2zM4,23H5V24H4zM5,23H6V24H5zM7,23H8V24H7zM10,23H11V24H10zM12,23H13V24H12zM14,23H15V24H14zM15,23H16V24H15zM19,23H20V24H19zM23,23H24V24H23zM25,23H26V24H25zM26,23H27V24H26zM27,23H28V24H27zM28,23H29V24H28zM31,23H32V24H31zM32,23H33V24H32zM33,23H34V24H33zM36,23H37V24H36zM37,23H38V24H37zM38,23H39V24H38zM39,23H40V24H39zM40,23H41V24H40zM41,23H42V24H41zM42,23H43V24H42zM2,24H3V25H2zM6,24H7V25H6zM7,24H8V25H7zM8,24H9V25H8zM9,24H10V25H9zM10,24H11V25H10zM11,24H12V25H11zM12,24H13V25H12zM13,24H14V25H13zM15,24H16V25H15zM17,24H18V25H17zM19,24H20V25H19zM20,24H21V25H20zM24,24H25V25H24zM25,24H26V25H25zM26,24H27V25H26zM29,24H30V25H29zM32,24H33V25H32zM35,24H36V25H35zM38,24H39V25H38zM39,24H40V25H39zM2,25H3V26H2zM4,25H5V26H4zM6,25H7V26H6zM7,25H8V26H7zM14,25H15V26H14zM16,25H17V26H16zM17,25H18V26H17zM21,25H22V26H21zM22,25H23V26H22zM23,25H24V26H23zM24,25H25V26H24zM26,25H27V26H26zM27,25H28V26H27zM29,25H30V26H29zM33,25H34V26H33zM34,25H35V26H34zM36,25H37V26H36zM37,25H38V26H37zM38,25H39V26H38zM39,25H40V26H39zM2,26H3V27H2zM3,26H4V27H3zM4,26H5V27H4zM7,26H8V27H7zM8,26H9V27H8zM10,26H11V27H10zM11,26H12V27H11zM12,26H13V27H12zM16,26H17V27H16zM17,26H18V27H17zM19,26H20V27H19zM20,26H21V27H20zM22,26H23V27H22zM24,26H25V27H24zM25,26H26V27H25zM29,26H30V27H29zM30,26H31V27H30zM31,26H32V27H31zM33,26H34V27H33zM40,26H41V27H40zM41,26H42V27H41zM3,27H4V28H3zM6,27H7V28H6zM9,27H10V28H9zM10,27H11V28H10zM12,27H13V28H12zM13,27H14V28H13zM14,27H15V28H14zM19,27H20V28H19zM21,27H22V28H21zM24,27H25V28H24zM25,27H26V28H25zM26,27H27V28H26zM27,27H28V28H27zM30,27H31V28H30zM33,27H34V28H33zM36,27H37V28H36zM38,27H39V28H38zM39,27H40V28H39zM41,27H42V28H41zM42,27H43V28H42zM4,28H5V29H4zM8,28H9V29H8zM9,28H10V29H9zM14,28H15V29H14zM17,28H18V29H17zM19,28H20V29H19zM20,28H21V29H20zM23,28H24V29H23zM25,28H26V29H25zM27,28H28V29H27zM28,28H29V29H28zM29,28H30V29H29zM34,28H35V29H34zM36,28H37V29H36zM37,28H38V29H37zM4,29H5V30H4zM5,29H6V30H5zM12,29H13V30H12zM13,29H14V30H13zM17,29H18V30H17zM19,29H20V30H19zM20,29H21V30H20zM22,29H23V30H22zM23,29H24V30H23zM24,29H25V30H24zM25,29H26V30H25zM26,29H27V30H26zM28,29H29V30H28zM29,29H30V30H29zM33,29H34V30H33zM34,29H35V30H34zM35,29H36V30H35zM36,29H37V30H36zM37,29H38V30H37zM39,29H40V30H39zM41,29H42V30H41zM42,29H43V30H42zM2,30H3V31H2zM4,30H5V31H4zM5,30H6V31H5zM8,30H9V31H8zM10,30H11V31H10zM17,30H18V31H17zM18,30H19V31H18zM19,30H20V31H19zM21,30H22V31H21zM22,30H23V31H22zM24,30H25V31H24zM27,30H28V31H27zM28,30H29V31H28zM31,30H32V31H31zM32,30H33V31H32zM33,30H34V31H33zM34,30H35V31H34zM36,30H37V31H36zM39,30H40V31H39zM40,30H41V31H40zM42,30H43V31H42zM2,31H3V32H2zM3,31H4V32H3zM6,31H7V32H6zM7,31H8V32H7zM9,31H10V32H9zM10,31H11V32H10zM14,31H15V32H14zM15,31H16V32H15zM16,31H17V32H16zM17,31H18V32H17zM20,31H21V32H20zM21,31H22V32H21zM24,31H25V32H24zM26,31H27V32H26zM28,31H29V32H28zM29,31H30V32H29zM30,31H31V32H30zM31,31H32V32H31zM35,31H36V32H35zM38,31H39V32H38zM39,31H40V32H39zM40,31H41V32H40zM42,31H43V32H42zM2,32H3V33H2zM4,32H5V33H4zM5,32H6V33H5zM6,32H7V33H6zM7,32H8V33H7zM8,32H9V33H8zM10,32H11V33H10zM11,32H12V33H11zM14,32H15V33H14zM17,32H18V33H17zM18,32H19V33H18zM19,32H20V33H19zM21,32H22V33H21zM22,32H23V33H22zM23,32H24V33H23zM24,32H25V33H24zM26,32H27V33H26zM27,32H28V33H27zM28,32H29V33H28zM34,32H35V33H34zM35,32H36V33H35zM36,32H37V33H36zM37,32H38V33H37zM38,32H39V33H38zM39,32H40V33H39zM40,32H41V33H40zM2,33H3V34H2zM10,33H11V34H10zM12,33H13V34H12zM14,33H15V34H14zM15,33H16V34H15zM18,33H19V34H18zM19,33H20V34H19zM21,33H22V34H21zM22,33H23V34H22zM24,33H25V34H24zM27,33H28V34H27zM28,33H29V34H28zM30,33H31V34H30zM35,33H36V34H35zM36,33H37V34H36zM37,33H38V34H37zM39,33H40V34H39zM2,34H3V35H2zM4,34H5V35H4zM5,34H6V35H5zM6,34H7V35H6zM7,34H8V35H7zM8,34H9V35H8zM11,34H12V35H11zM12,34H13V35H12zM14,34H15V35H14zM17,34H18V35H17zM22,34H23V35H22zM23,34H24V35H23zM25,34H26V35H25zM27,34H28V35H27zM28,34H29V35H28zM30,34H31V35H30zM31,34H32V35H31zM34,34H35V35H34zM35,34H36V35H35zM36,34H37V35H36zM37,34H38V35H37zM38,34H39V35H38zM40,34H41V35H40zM42,34H43V35H42zM10,35H11V36H10zM13,35H14V36H13zM15,35H16V36H15zM17,35H18V36H17zM19,35H20V36H19zM22,35H23V36H22zM26,35H27V36H26zM27,35H28V36H27zM30,35H31V36H30zM32,35H33V36H32zM34,35H35V36H34zM38,35H39V36H38zM39,35H40V36H39zM41,35H42V36H41zM42,35H43V36H42zM2,36H3V37H2zM3,36H4V37H3zM4,36H5V37H4zM5,36H6V37H5zM6,36H7V37H6zM7,36H8V37H7zM8,36H9V37H8zM13,36H14V37H13zM15,36H16V37H15zM18,36H19V37H18zM19,36H20V37H19zM21,36H22V37H21zM22,36H23V37H22zM23,36H24V37H23zM27,36H28V37H27zM28,36H29V37H28zM29,36H30V37H29zM32,36H33V37H32zM33,36H34V37H33zM34,36H35V37H34zM36,36H37V37H36zM38,36H39V37H38zM41,36H42V37H41zM2,37H3V38H2zM8,37H9V38H8zM12,37H13V38H12zM13,37H14V38H13zM14,37H15V38H14zM15,37H16V38H15zM17,37H18V38H17zM18,37H19V38H18zM19,37H20V38H19zM22,37H23V38H22zM23,37H24V38H23zM26,37H27V38H26zM27,37H28V38H27zM28,37H29V38H28zM29,37H30V38H29zM30,37H31V38H30zM33,37H34V38H33zM34,37H35V38H34zM38,37H39V38H38zM39,37H40V38H39zM41,37H42V38H41zM42,37H43V38H42zM2,38H3V39H2zM4,38H5V39H4zM5,38H6V39H5zM6,38H7V39H6zM8,38H9V39H8zM10,38H11V39H10zM11,38H12V39H11zM13,38H14V39H13zM15,38H16V39H15zM19,38H20V39H19zM24,38H25V39H24zM26,38H27V39H26zM29,38H30V39H29zM30,38H31V39H30zM32,38H33V39H32zM34,38H35V39H34zM35,38H36V39H35zM36,38H37V39H36zM37,38H38V39H37zM38,38H39V39H38zM40,38H41V39H40zM41,38H42V39H41zM2,39H3V40H2zM4,39H5V40H4zM5,39H6V40H5zM6,39H7V40H6zM8,39H9V40H8zM10,39H11V40H10zM11,39H12V40H11zM14,39H15V40H14zM15,39H16V40H15zM18,39H19V40H18zM22,39H23V40H22zM24,39H25V40H24zM25,39H26V40H25zM33,39H34V40H33zM34,39H35V40H34zM35,39H36V40H35zM37,39H38V40H37zM42,39H43V40H42zM2,40H3V41H2zM4,40H5V41H4zM5,40H6V41H5zM6,40H7V41H6zM8,40H9V41H8zM10,40H11V41H10zM11,40H12V41H11zM12,40H13V41H12zM15,40H16V41H15zM21,40H22V41H21zM24,40H25V41H24zM26,40H27V41H26zM28,40H29V41H28zM29,40H30V41H29zM30,40H31V41H30zM33,40H34V41H33zM35,40H36V41H35zM36,40H37V41H36zM37,40H38V41H37zM38,40H39V41H38zM39,40H40V41H39zM41,40H42V41H41zM2,41H3V42H2zM8,41H9V42H8zM12,41H13V42H12zM15,41H16V42H15zM16,41H17V42H16zM20,41H21V42H20zM22,41H23V42H22zM23,41H24V42H23zM27,41H28V42H27zM32,41H33V42H32zM34,41H35V42H34zM38,41H39V42H38zM39,41H40V42H39zM41,41H42V42H41zM2,42H3V43H2zM3,42H4V43H3zM4,42H5V43H4zM5,42H6V43H5zM6,42H7V43H6zM7,42H8V43H7zM8,42H9V43H8zM11,42H12V43H11zM12,42H13V43H12zM15,42H16V43H15zM17,42H18V43H17zM22,42H23V43H22zM23,42H24V43H23zM24,42H25V43H24zM25,42H26V43H25zM27,42H28V43H27zM28,42H29V43H28zM29,42H30V43H29zM31,42H32V43H31zM33,42H34V43H33zM37,42H38V43H37zM38,42H39V43H38zM39,42H40V43H39zM40,42H41V43H40z" id="qr-path" fill="#000000" fill-opacity="1" fill-rule="nonzero" stroke="none"/></svg>