<?xml version='1.0' encoding='UTF-8'?>
<svg width="45mm" height="45mm" version="1.1" viewBox="0 0 45 45" xmlns="http://www.w3.org/2000/svg"><path d="M2,2H3V3H2zM3,2H4V3H3zM4,2H5V3H4zM5,2H6V3H5zM6,2H7V3H6zM7,2H8V3H7zM8,2H9V3H8zM12,2H13V3H12zM14,2H15V3H14zM15,2H16V3H15zM16,2H17V3H16zM18,2H19V3H18zM19,2H20V3H19zM21,2H22V3H21zM26,2H27V3H26zM27,2H28V3H27zM30,2H31V3H30zM32,2H33V3H32zM33,2H34V3H33zM36,2H37V3H36zM37,2H38V3H37zM38,2H39V3H38zM39,2H40V3H39zM40,2H41V3H40zM41,2H42V3H41zM42,2H43V3H42zM2,3H3V4H2zM8,3H9V4H8zM14,3H15V4H14zM15,3H16V4H15zM17,3H18V4H17zM18,3H19V4H18zM20,3H21V4H20zM21,3H22V4H21zM22,3H23V4H22zM23,3H24V4H23zM26,3H27V4H26zM27,3H28V4H27zM31,3H32V4H31zM36,3H37V4H36zM42,3H43V4H42zM2,4H3V5H2zM4,4H5V5H4zM5,4H6V5H5zM6,4H7V5H6zM8,4H9V5H8zM11,4H12V5H11zM13,4H14V5H13zM14,4H15V5H14zM15,4H16V5H15zM16,4H17V5H16zM18,4H19V5H18zM20,4H21V5H20zM25,4H26V5H25zM26,4H27V5H26zM29,4H30V5H29zM32,4H33V5H32zM33,4H34V5H33zM34,4H35V5H34zM36,4H37V5H36zM38,4H39V5H38zM39,4H40V5H39zM40,4H41V5H40zM42,4H43V5H42zM2,5H3V6H2zM4,5H5V6H4zM5,5H6V6H5zM6,5H7V6H6zM8,5H9V6H8zM11,5H12V6H11zM12,5H13V6H12zM14,5H15V6H14zM16,5H17V6H16zM17,5H18V6H17zM21,5H22V6H21zM23,5H24V6H23zM25,5H26V6H25zM26,5H27V6H26zM28,5H29V6H28zM32,5H33V6H32zM33,5H34V6H33zM36,5H37V6H36zM38,5H39V6H38zM39,5H40V6H39zM40,5H41V6H40zM42,5H43V6H42zM2,6H3V7H2zM4,6H5V7H4zM5,6H6V7H5zM6,6H7V7H6zM8,6H9V7H8zM10,6H11V7H10zM12,6H13V7H12zM17,6H18V7H17zM18,6H19V7H18zM20,6H21V7H20zM21,6H22V7H21zM23,6H24V7H23zM24,6H25V7H24zM25,6H26V7H25zM27,6H28V7H27zM28,6H29V7H28zM29,6H30V7H29zM30,6H31V7H30zM31,6H32V7H31zM32,6H33V7H32zM33,6H34V7H33zM36,6H37V7H36zM38,6H39V7H38zM39,6H40V7H39zM40,6H41V7H40zM42,6H43V7H42zM2,7H3V8H2zM8,7H9V8H8zM12,7H13V8H12zM14,7H15V8H14zM15,7H16V8H15zM16,7H17V8H16zM18,7H19V8H18zM21,7H22V8H21zM26,7H27V8H26zM31,7H32V8H31zM33,7H34V8H33zM36,7H37V8H36zM42,7H43V8H42zM2,8H3V9H2zM3,8H4V9H3zM4,8H5V9H4zM5,8H6V9H5zM6,8H7V9H6zM7,8H8V9H7zM8,8H9V9H8zM10,8H11V9H10zM12,8H13V9H12zM14,8H15V9H14zM16,8H17V9H16zM18,8H19V9H18zM20,8H21V9H20zM22,8H23V9H22zM24,8H25V9H24zM26,8H27V9H26zM28,8H29V9H28zM30,8H31V9H30zM32,8H33V9H32zM34,8H35V9H34zM36,8H37V9H36zM37,8H38V9H37zM38,8H39V9H38zM39,8H40V9H39zM40,8H41V9H40zM41,8H42V9H41zM42,8H43V9H42zM10,9H11V10H10zM13,9H14V10H13zM14,9H15V10H14zM15,9H16V10H15zM16,9H17V10H16zM17,9H18V10H17zM18,9H19V10H18zM20,9H21V10H20zM25,9H26V10H25zM26,9H27V10H26zM28,9H29V10H28zM30,9H31V10H30zM31,9H32V10H31zM32,9H33V10H32zM33,9H34V10H33zM4,10H5V11H4zM5,10H6V11H5zM8,10H9V11H8zM9,10H10V11H9zM10,10H11V11H10zM11,10H12V11H11zM13,10H14V11H13zM14,10H15V11H14zM15,10H16V11H15zM16,10H17V11H16zM21,10H22V11H21zM24,10H25V11H24zM26,10H27V11H26zM28,10H29V11H28zM31,10H32V11H31zM32,10H33V11H32zM34,10H35V11H34zM35,10H36V11H35zM36,10H37V11H36zM38,10H39V11H38zM3,11H4V12H3zM4,11H5V12H4zM5,11H6V12H5zM6,11H7V12H6zM11,11H12V12H11zM16,11H17V12H16zM17,11H18V12H17zM18,11H19V12H18zM22,11H23V12H22zM26,11H27V12H26zM28,11H29V12H28zM33,11H34V12H33zM34,11H35V12H34zM36,11H37V12H36zM37,11H38V12H37zM38,11H39V12H38zM40,11H41V12H40zM41,11H42V12H41zM42,11H43V12H42zM2,12H3V13H2zM3,12H4V13H3zM5,12H6V13H5zM8,12H9V13H8zM10,12H11V13H10zM12,12H13V13H12zM13,12H14V13H13zM14,12H15V13H14zM15,12H16V13H15zM16,12H17V13H16zM17,12H18V13H17zM18,12H19V13H18zM20,12H21V13H20zM21,12H22V13H21zM22,12H23V13H22zM26,12H27V13H26zM27,12H28V13H27zM28,12H29V13H28zM30,12H31V13H30zM32,12H33V13H32zM35,12H36V13H35zM36,12H37V13H36zM38,12H39V13H38zM40,12H41V13H40zM41,12H42V13H41zM2,13H3V14H2zM3,13H4V14H3zM4,13H5V14H4zM5,13H6V14H5zM6,13H7V14H6zM7,13H8V14H7zM9,13H10V14H9zM10,13H11V14H10zM12,13H13V14H12zM14,13H15V14H14zM19,13H20V14H19zM20,13H21V14H20zM23,13H24V14H23zM24,13H25V14H24zM26,13H27V14H26zM28,13H29V14H28zM29,13H30V14H29zM32,13H33V14H32zM34,13H35V14H34zM35,13H36V14H35zM41,13H42V14H41zM42,13H43V14H42zM2,14H3V15H2zM3,14H4V15H3zM5,14H6V15H5zM7,14H8V15H7zM8,14H9V15H8zM11,14H12V15H11zM14,14H15V15H14zM15,14H16V15H15zM16,14H17V15H16zM18,14H19V15H18zM20,14H21V15H20zM21,14H22V15H21zM28,14H29V15H28zM29,14H30V15H29zM30,14H31V15H30zM31,14H32V15H31zM33,14H34V15H33zM35,14H36V15H35zM37,14H38V15H37zM39,14H40V15H39zM40,14H41V15H40zM42,14H43V15H42zM2,15H3V16H2zM5,15H6V16H5zM7,15H8V16H7zM9,15H10V16H9zM11,15H12V16H11zM13,15H14V16H13zM15,15H16V16H15zM16,15H17V16H16zM20,15H21V16H20zM23,15H24V16H23zM24,15H25V16H24zM26,15H27V16H26zM27,15H28V16H27zM28,15H29V16H28zM40,15H41V16H40zM42,15H43V16H42zM5,16H6V17H5zM6,16H7V17H6zM8,16H9V17H8zM9,16H10V17H9zM12,16H13V17H12zM13,16H14V17H13zM14,16H15V17H14zM15,16H16V17H15zM17,16H18V17H17zM22,16H23V17H22zM23,16H24V17H23zM24,16H25V17H24zM27,16H28V17H27zM32,16H33V17H32zM36,16H37V17H36zM37,16H38V17H37zM38,16H39V17H38zM39,16H40V17H39zM41,16H42V17H41zM42,16H43V17H42zM3,17H4V18H3zM7,17H8V18H7zM11,17H12V18H11zM12,17H13V18H12zM13,17H14V18H13zM15,17H16V18H15zM16,17H17V18H16zM17,17H18V18H17zM19,17H20V18H19zM21,17H22V18H21zM25,17H26V18H25zM26,17H27V18H26zM27,17H28V18H27zM28,17H29V18H28zM29,17H30V18H29zM33,17H34V18H33zM34,17H35V18H34zM36,17H37V18H36zM38,17H39V18H38zM41,17H42V18H41zM42,17H43V18H42zM2,18H3V19H2zM5,18H6V19H5zM7,18H8V19H7zM8,18H9V19H8zM9,18H10V19H9zM10,18H11V19H10zM13,18H14V19H13zM14,18H15V19H14zM16,18H17V19H16zM19,18H20V19H19zM21,18H22V19H21zM26,18H27V19H26zM27,18H28V19H27zM32,18H33V19H32zM33,18H34V19H33zM34,18H35V19H34zM38,18H39V19H38zM39,18H40V19H39zM41,18H42V19H41zM42,18H43V19H42zM2,19H3V20H2zM6,19H7V20H6zM9,19H10V20H9zM11,19H12V20H11zM13,19H14V20H13zM17,19H18V20H17zM18,19H19V20H18zM19,19H20V20H19zM20,19H21V20H20zM22,19H23V20H22zM23,19H24V20H23zM24,19H25V20H24zM26,19H27V20H26zM29,19H30V20H29zM31,19H32V20H31zM34,19H35V20H34zM35,19H36V20H35zM37,19H38V20H37zM39,19H40V20H39zM40,19H41V20H40zM41,19H42V20H41zM7,20H8V21H7zM8,20H9V21H8zM11,20H12V21H11zM12,20H13V21H12zM14,20H15V21H14zM18,20H19V21H18zM19,20H20V21H19zM23,20H24V21H23zM24,20H25V21H24zM26,20H27V21H26zM27,20H28V21H27zM29,20H30V21H29zM30,20H31V21H30zM31,20H32V21H31zM38,20H39V21H38zM39,20H40V21H39zM41,20H42V21H41zM3,21H4V22H3zM6,21H7V22H6zM7,21H8V22H7zM9,21H10V22H9zM11,21H12V22H11zM13,21H14V22H13zM14,21H15V22H14zM16,21H17V22H16zM17,21H18V22H17zM18,21H19V22H18zM19,21H20V22H19zM20,21H21V22H20zM21,21H22V22H21zM22,21H23V22H22zM26,21H27V22H26zM27,21H28V22H27zM28,21H29V22H28zM29,21H30V22H29zM30,21H31V22H30zM33,21H34V22H33zM34,21H35V22H34zM35,21H36V22H35zM37,21H38V22H37zM39,21H40V22H39zM40,21H41V22H40zM41,21H42V22H41zM42,21H43V22H42zM6,22H7V23H6zM8,22H9V23H8zM10,22H11V23H10zM11,22H12V23H11zM12,22H13V23H12zM18,22H19V23H18zM19,22H20V23H19zM20,22H21V23H20zM21,22H22V23H21zM24,22H25V23H24zM28,22H29V23H28zM29,22H30V23H29zM32,22H33V23H32zM33,22H34V23H33zM35,22H36V23H35zM36,22H37V23H36zM38,22H39V23H38zM39,22H40V23H39zM40,22H41V23H40zM42,22H43V23H42zM2,23H3V24H2zM7,23H8V24H7zM9,23H10V24H9zM10,23H11V24H10zM11,23H12V24H11zM12,23H13V24H12zM13,23H14V24H13zM15,23H16V24H15zM18,23H19V24H18zM19,23H20V24H19zM20,23H21V24H20zM21,23H22V24H21zM22,23H23V24H22zM26,23H27V24H26zM27,23H28V24H27zM28,23H29V24H28zM30,23H31V24H30zM32,23H33V24H32zM33,23H34V24H33zM35,23H36V24H35zM36,23H37V24H36zM38,23H39V24H38zM41,23H42V24H41zM42,23H43V24H42zM4,24H5V25H4zM5,24H6V25H5zM6,24H7V25H6zM7,24H8V25H7zM8,24H9V25H8zM11,24H12V25H11zM12,24H13V25H12zM13,24H14V25H13zM14,24H15V25H14zM16,24H17V25H16zM18,24H19V25H18zM20,24H21V25H20zM21,24H22V25H21zM23,24H24V25H23zM25,24H26V25H25zM28,24H29V25H28zM31,24H32V25H31zM32,24H33V25H32zM35,24H36V25H35zM38,24H39V25H38zM39,24H40V25H39zM40,24H41V25H40zM41,24H42V25H41zM2,25H3V26H2zM4,25H5V26H4zM5,25H6V26H5zM6,25H7V26H6zM9,25H10V26H9zM10,25H11V26H10zM11,25H12V26H11zM15,25H16V26H15zM19,25H20V26H19zM24,25H25V26H24zM27,25H28V26H27zM30,25H31V26H30zM32,25H33V26H32zM34,25H35V26H34zM35,25H36V26H35zM41,25H42V26H41zM42,25H43V26H42zM2,26H3V27H2zM3,26H4V27H3zM4,26H5V27H4zM6,26H7V27H6zM7,26H8V27H7zM8,26H9V27H8zM10,26H11V27H10zM13,26H14V27H13zM14,26H15V27H14zM15,26H16V27H15zM16,26H17V27H16zM17,26H18V27H17zM21,26H22V27H21zM23,26H24V27H23zM24,26H25V27H24zM30,26H31V27H30zM31,26H32V27H31zM33,26H34V27H33zM37,26H38V27H37zM39,26H40V27H39zM40,26H41V27H40zM41,26H42V27H41zM2,27H3V28H2zM3,27H4V28H3zM6,27H7V28H6zM7,27H8V28H7zM9,27H10V28H9zM11,27H12V28H11zM13,27H14V28H13zM14,27H15V28H14zM15,27H16V28H15zM20,27H21V28H20zM21,27H22V28H21zM22,27H23V28H22zM24,27H25V28H24zM27,27H28V28H27zM28,27H29V28H28zM29,27H30V28H29zM33,27H34V28H33zM34,27H35V28H34zM36,27H37V28H36zM39,27H40V28H39zM40,27H41V28H40zM42,27H43V28H42zM8,28H9V29H8zM11,28H12V29H11zM14,28H15V29H14zM16,28H17V29H16zM17,28H18V29H17zM18,28H19V29H18zM20,28H21V29H20zM21,28H22V29H21zM25,28H26V29H25zM30,28H31V29H30zM33,28H34V29H33zM34,28H35V29H34zM35,28H36V29H35zM37,28H38V29H37zM38,28H39V29H38zM39,28H40V29H39zM42,28H43V29H42zM2,29H3V30H2zM3,29H4V30H3zM5,29H6V30H5zM6,29H7V30H6zM7,29H8V30H7zM9,29H10V30H9zM10,29H11V30H10zM12,29H13V30H12zM16,29H17V30H16zM17,29H18V30H17zM18,29H19V30H18zM19,29H20V30H19zM21,29H22V30H21zM24,29H25V30H24zM25,29H26V30H25zM26,29H27V30H26zM28,29H29V30H28zM29,29H30V30H29zM30,29H31V30H30zM33,29H34V30H33zM34,29H35V30H34zM35,29H36V30H35zM36,29H37V30H36zM37,29H38V30H37zM39,29H40V30H39zM2,30H3V31H2zM3,30H4V31H3zM5,30H6V31H5zM6,30H7V31H6zM8,30H9V31H8zM12,30H13V31H12zM22,30H23V31H22zM23,30H24V31H23zM24,30H25V31H24zM26,30H27V31H26zM27,30H28V31H27zM32,30H33V31H32zM33,30H34V31H33zM35,30H36V31H35zM36,30H37V31H36zM38,30H39V31H38zM39,30H40V31H39zM41,30H42V31H41zM3,31H4V32H3zM5,31H6V32H5zM7,31H8V32H7zM9,31H10V32H9zM13,31H14V32H13zM15,31H16V32H15zM17,31H18V32H17zM19,31H20V32H19zM20,31H21V32H20zM22,31H23V32H22zM24,31H25V32H24zM25,31H26V32H25zM26,31H27V32H26zM32,31H33V32H32zM33,31H34V32H33zM36,31H37V32H36zM37,31H38V32H37zM39,31H40V32H39zM2,32H3V33H2zM4,32H5V33H4zM5,32H6V33H5zM7,32H8V33H7zM8,32H9V33H8zM14,32H15V33H14zM17,32H18V33H17zM19,32H20V33H19zM21,32H22V33H21zM22,32H23V33H22zM27,32H28V33H27zM28,32H29V33H28zM34,32H35V33H34zM35,32H36V33H35zM36,32H37V33H36zM37,32H38V33H37zM38,32H39V33H38zM41,32H42V33H41zM6,33H7V34H6zM7,33H8V34H7zM9,33H10V34H9zM11,33H12V34H11zM12,33H13V34H12zM13,33H14V34H13zM14,33H15V34H14zM15,33H16V34H15zM18,33H19V34H18zM20,33H21V34H20zM21,33H22V34H21zM24,33H25V34H24zM28,33H29V34H28zM29,33H30V34H29zM30,33H31V34H30zM31,33H32V34H31zM34,33H35V34H34zM36,33H37V34H36zM38,33H39V34H38zM40,33H41V34H40zM42,33H43V34H42zM3,34H4V35H3zM8,34H9V35H8zM11,34H12V35H11zM12,34H13V35H12zM17,34H18V35H17zM18,34H19V35H18zM19,34H20V35H19zM21,34H22V35H21zM25,34H26V35H25zM27,34H28V35H27zM29,34H30V35H29zM30,34H31V35H30zM31,34H32V35H31zM32,34H33V35H32zM33,34H34V35H33zM34,34H35V35H34zM35,34H36V35H35zM36,34H37V35H36zM37,34H38V35H37zM38,34H39V35H38zM39,34H40V35H39zM40,34H41V35H40zM42,34H43V35H42zM10,35H11V36H10zM13,35H14V36H13zM17,35H18V36H17zM18,35H19V36H18zM19,35H20V36H19zM20,35H21V36H20zM21,35H22V36H21zM22,35H23V36H22zM23,35H24V36H23zM24,35H25V36H24zM27,35H28V36H27zM28,35H29V36H28zM30,35H31V36H30zM33,35H34V36H33zM34,35H35V36H34zM38,35H39V36H38zM39,35H40V36H39zM40,35H41V36H40zM42,35H43V36H42zM2,36H3V37H2zM3,36H4V37H3zM4,36H5V37H4zM5,36H6V37H5zM6,36H7V37H6zM7,36H8V37H7zM8,36H9V37H8zM10,36H11V37H10zM12,36H13V37H12zM14,36H15V37H14zM16,36H17V37H16zM17,36H18V37H17zM18,36H19V37H18zM20,36H21V37H20zM21,36H22V37H21zM22,36H23V37H22zM24,36H25V37H24zM25,36H26V37H25zM26,36H27V37H26zM27,36H28V37H27zM28,36H29V37H28zM31,36H32V37H31zM33,36H34V37H33zM34,36H35V37H34zM36,36H37V37H36zM38,36H39V37H38zM39,36H40V37H39zM2,37H3V38H2zM8,37H9V38H8zM13,37H14V38H13zM14,37H15V38H14zM16,37H17V38H16zM17,37H18V38H17zM19,37H20V38H19zM20,37H21V38H20zM21,37H22V38H21zM22,37H23V38H22zM24,37H25V38H24zM27,37H28V38H27zM28,37H29V38H28zM29,37H30V38H29zM30,37H31V38H30zM32,37H33V38H32zM34,37H35V38H34zM38,37H39V38H38zM39,37H40V38H39zM41,37H42V38H41zM42,37H43V38H42zM2,38H3V39H2zM4,38H5V39H4zM5,38H6V39H5zM6,38H7V39H6zM8,38H9V39H8zM12,38H13V39H12zM15,38H16V39H15zM23,38H24V39H23zM25,38H26V39H25zM27,38H28V39H27zM29,38H30V39H29zM32,38H33V39H32zM34,38H35V39H34zM35,38H36V39H35zM36,38H37V39H36zM37,38H38V39H37zM38,38H39V39H38zM40,38H41V39H40zM2,39H3V40H2zM4,39H5V40H4zM5,39H6V40H5zM6,39H7V40H6zM8,39H9V40H8zM10,39H11V40H10zM11,39H12V40H11zM16,39H17V40H16zM20,39H21V40H20zM21,39H22V40H21zM22,39H23V40H22zM25,39H26V40H25zM26,39H27V40H26zM27,39H28V40H27zM29,39H30V40H29zM30,39H31V40H30zM32,39H33V40H32zM33,39H34V40H33zM34,39H35V40H34zM38,39H39V40H38zM39,39H40V40H39zM40,39H41V40H40zM41,39H42V40H41zM42,39H43V40H42zM2,40H3V41H2zM4,40H5V41H4zM5,40H6V41H5zM6,40H7V41H6zM8,40H9V41H8zM10,40H11V41H10zM11,40H12V41H11zM13,40H14V41H13zM14,40H15V41H14zM15,40H16V41H15zM16,40H17V41H16zM17,40H18V41H17zM19,40H20V41H19zM21,40H22V41H21zM22,40H23V41H22zM23,40H24V41H23zM24,40H25V41H24zM28,40H29V41H28zM30,40H31V41H30zM31,40H32V41H31zM32,40H33V41H32zM33,40H34V41H33zM37,40H38V41H37zM39,40H40V41H39zM42,40H43V41H42zM2,41H3V42H2zM8,41H9V42H8zM14,41H15V42H14zM15,41H16V42H15zM18,41H19V42H18zM19,41H20V42H19zM21,41H22V42H21zM22,41H23V42H22zM27,41H28V42H27zM28,41H29V42H28zM29,41H30V42H29zM30,41H31V42H30zM32,41H33V42H32zM34,41H35V42H34zM38,41H39V42H38zM39,41H40V42H39zM41,41H42V42H41zM2,42H3V43H2zM3,42H4V43H3zM4,42H5V43H4zM5,42H6V43H5zM6,42H7V43H6zM7,42H8V43H7zM8,42H9V43H8zM11,42H12V43H11zM12,42H13V43H12zM16,42H17V43H16zM21,42H22V43H21zM22,42H23V43H22zM24,42H25V43H24zM26,42H27V43H26zM27,42H28V43H27zM28,42H29V43H28zM30,42H31V43H30zM33,42H34V43H33zM34,42H35V43H34zM41,42H42V43H41z" id="qr-path" fill="#000000" fill-opacity="1" fill-rule="nonzero" stroke="none"/></svg>