<?xml version='1.0' encoding='UTF-8'?>
<svg width="53mm" height="53mm" version="1.1" viewBox="0 0 53 53" xmlns="http://www.w3.org/2000/svg"><path d="M2,2H3V3H2zM3,2H4V3H3zM4,2H5V3H4zM5,2H6V3H5zM6,2H7V3H6zM7,2H8V3H7zM8,2H9V3H8zM10,2H11V3H10zM11,2H12V3H11zM13,2H14V3H13zM14,2H15V3H14zM16,2H17V3H16zM17,2H18V3H17zM18,2H19V3H18zM20,2H21V3H20zM21,2H22V3H21zM22,2H23V3H22zM24,2H25V3H24zM26,2H27V3H26zM27,2H28V3H27zM33,2H34V3H33zM37,2H38V3H37zM39,2H40V3H39zM42,2H43V3H42zM44,2H45V3H44zM45,2H46V3H45zM46,2H47V3H46zM47,2H48V3H47zM48,2H49V3H48zM49,2H50V3H49zM50,2H51V3H50zM2,3H3V4H2zM8,3H9V4H8zM10,3H11V4H10zM11,3H12V4H11zM12,3H13V4H12zM13,3H14V4H13zM15,3H16V4H15zM16,3H17V4H16zM17,3H18V4H17zM19,3H20V4H19zM23,3H24V4H23zM26,3H27V4H26zM29,3H30V4H29zM34,3H35V4H34zM35,3H36V4H35zM36,3H37V4H36zM37,3H38V4H37zM38,3H39V4H38zM39,3H40V4H39zM40,3H41V4H40zM41,3H42V4H41zM42,3H43V4H42zM44,3H45V4H44zM50,3H51V4H50zM2,4H3V5H2zM4,4H5V5H4zM5,4H6V5H5zM6,4H7V5H6zM8,4H9V5H8zM10,4H11V5H10zM12,4H13V5H12zM13,4H14V5H13zM16,4H17V5H16zM17,4H18V5H17zM18,4H19V5H18zM21,4H22V5H21zM22,4H23V5H22zM23,4H24V5H23zM30,4H31V5H30zM31,4H32V5H31zM32,4H33V5H32zM34,4H35V5H34zM36,4H37V5H36zM41,4H42V5H41zM42,4H43V5H42zM44,4H45V5H44zM46,4H47V5H46zM47,4H48V5H47zM48,4H49V5H48zM50,4H51V5H50zM2,5H3V6H2zM4,5H5V6H4zM5,5H6V6H5zM6,5H7V6H6zM8,5H9V6H8zM12,5H13V6H12zM13,5H14V6H13zM16,5H17V6H16zM17,5H18V6H17zM18,5H19V6H18zM22,5H23V6H22zM23,5H24V6H23zM24,5H25V6H24zM25,5H26V6H25zM28,5H29V6H28zM30,5H31V6H30zM31,5H32V6H31zM37,5H38V6H37zM38,5H39V6H38zM39,5H40V6H39zM41,5H42V6H41zM44,5H45V6H44zM46,5H47V6H46zM47,5H48V6H47zM48,5H49V6H48zM50,5H51V6H50zM2,6H3V7H2zM4,6H5V7H4zM5,6H6V7H5zM6,6H7V7H6zM8,6H9V7H8zM19,6H20V7H19zM20,6H21V7H20zM22,6H23V7H22zM23,6H24V7H23zM24,6H25V7H24zM25,6H26V7H25zM26,6H27V7H26zM27,6H28V7H27zM28,6H29V7H28zM29,6H30V7H29zM31,6H32V7H31zM32,6H33V7H32zM33,6H34V7H33zM34,6H35V7H34zM35,6H36V7H35zM37,6H38V7H37zM38,6H39V7H38zM39,6H40V7H39zM44,6H45V7H44zM46,6H47V7H46zM47,6H48V7H47zM48,6H49V7H48zM50,6H51V7H50zM2,7H3V8H2zM8,7H9V8H8zM10,7H11V8H10zM12,7H13V8H12zM14,7H15V8H14zM16,7H17V8H16zM17,7H18V8H17zM19,7H20V8H19zM20,7H21V8H20zM21,7H22V8H21zM23,7H24V8H23zM24,7H25V8H24zM28,7H29V8H28zM30,7H31V8H30zM31,7H32V8H31zM32,7H33V8H32zM33,7H34V8H33zM34,7H35V8H34zM35,7H36V8H35zM36,7H37V8H36zM37,7H38V8H37zM38,7H39V8H38zM39,7H40V8H39zM40,7H41V8H40zM44,7H45V8H44zM50,7H51V8H50zM2,8H3V9H2zM3,8H4V9H3zM4,8H5V9H4zM5,8H6V9H5zM6,8H7V9H6zM7,8H8V9H7zM8,8H9V9H8zM10,8H11V9H10zM12,8H13V9H12zM14,8H15V9H14zM16,8H17V9H16zM18,8H19V9H18zM20,8H21V9H20zM22,8H23V9H22zM24,8H25V9H24zM26,8H27V9H26zM28,8H29V9H28zM30,8H31V9H30zM32,8H33V9H32zM34,8H35V9H34zM36,8H37V9H36zM38,8H39V9H38zM40,8H41V9H40zM42,8H43V9H42zM44,8H45V9H44zM45,8H46V9H45zM46,8H47V9H46zM47,8H48V9H47zM48,8H49V9H48zM49,8H50V9H49zM50,8H51V9H50zM10,9H11V10H10zM11,9H12V10H11zM12,9H13V10H12zM13,9H14V10H13zM15,9H16V10H15zM17,9H18V10H17zM18,9H19V10H18zM19,9H20V10H19zM21,9H22V10H21zM22,9H23V10H22zM23,9H24V10H23zM24,9H25V10H24zM28,9H29V10H28zM29,9H30V10H29zM32,9H33V10H32zM34,9H35V10H34zM35,9H36V10H35zM41,9H42V10H41zM4,10H5V11H4zM5,10H6V11H5zM6,10H7V11H6zM8,10H9V11H8zM10,10H11V11H10zM11,10H12V11H11zM14,10H15V11H14zM15,10H16V11H15zM16,10H17V11H16zM18,10H19V11H18zM20,10H21V11H20zM23,10H24V11H23zM24,10H25V11H24zM25,10H26V11H25zM26,10H27V11H26zM27,10H28V11H27zM28,10H29V11H28zM34,10H35V11H34zM35,10H36V11H35zM37,10H38V11H37zM38,10H39V11H38zM39,10H40V11H39zM40,10H41V11H40zM41,10H42V11H41zM42,10H43V11H42zM43,10H44V11H43zM44,10H45V11H44zM45,10H46V11H45zM48,10H49V11H48zM49,10H50V11H49zM50,10H51V11H50zM5,11H6V12H5zM6,11H7V12H6zM7,11H8V12H7zM11,11H12V12H11zM13,11H14V12H13zM15,11H16V12H15zM16,11H17V12H16zM17,11H18V12H17zM18,11H19V12H18zM19,11H20V12H19zM22,11H23V12H22zM23,11H24V12H23zM24,11H25V12H24zM25,11H26V12H25zM27,11H28V12H27zM29,11H30V12H29zM31,11H32V12H31zM33,11H34V12H33zM37,11H38V12H37zM43,11H44V12H43zM44,11H45V12H44zM45,11H46V12H45zM48,11H49V12H48zM2,12H3V13H2zM4,12H5V13H4zM7,12H8V13H7zM8,12H9V13H8zM9,12H10V13H9zM13,12H14V13H13zM14,12H15V13H14zM18,12H19V13H18zM19,12H20V13H19zM20,12H21V13H20zM25,12H26V13H25zM26,12H27V13H26zM27,12H28V13H27zM28,12H29V13H28zM29,12H30V13H29zM31,12H32V13H31zM33,12H34V13H33zM35,12H36V13H35zM36,12H37V13H36zM37,12H38V13H37zM40,12H41V13H40zM45,12H46V13H45zM46,12H47V13H46zM48,12H49V13H48zM49,12H50V13H49zM50,12H51V13H50zM4,13H5V14H4zM5,13H6V14H5zM12,13H13V14H12zM17,13H18V14H17zM18,13H19V14H18zM20,13H21V14H20zM24,13H25V14H24zM25,13H26V14H25zM27,13H28V14H27zM28,13H29V14H28zM29,13H30V14H29zM30,13H31V14H30zM33,13H34V14H33zM34,13H35V14H34zM35,13H36V14H35zM39,13H40V14H39zM40,13H41V14H40zM44,13H45V14H44zM46,13H47V14H46zM49,13H50V14H49zM2,14H3V15H2zM4,14H5V15H4zM6,14H7V15H6zM7,14H8V15H7zM8,14H9V15H8zM9,14H10V15H9zM10,14H11V15H10zM11,14H12V15H11zM13,14H14V15H13zM15,14H16V15H15zM16,14H17V15H16zM19,14H20V15H19zM20,14H21V15H20zM21,14H22V15H21zM22,14H23V15H22zM23,14H24V15H23zM26,14H27V15H26zM28,14H29V15H28zM29,14H30V15H29zM30,14H31V15H30zM32,14H33V15H32zM33,14H34V15H33zM37,14H38V15H37zM38,14H39V15H38zM39,14H40V15H39zM40,14H41V15H40zM41,14H42V15H41zM42,14H43V15H42zM43,14H44V15H43zM44,14H45V15H44zM45,14H46V15H45zM49,14H50V15H49zM4,15H5V16H4zM5,15H6V16H5zM6,15H7V16H6zM7,15H8V16H7zM9,15H10V16H9zM11,15H12V16H11zM16,15H17V16H16zM18,15H19V16H18zM20,15H21V16H20zM23,15H24V16H23zM24,15H25V16H24zM25,15H26V16H25zM26,15H27V16H26zM28,15H29V16H28zM30,15H31V16H30zM31,15H32V16H31zM33,15H34V16H33zM34,15H35V16H34zM39,15H40V16H39zM41,15H42V16H41zM43,15H44V16H43zM44,15H45V16H44zM45,15H46V16H45zM47,15H48V16H47zM2,16H3V17H2zM4,16H5V17H4zM5,16H6V17H5zM8,16H9V17H8zM9,16H10V17H9zM10,16H11V17H10zM12,16H13V17H12zM14,16H15V17H14zM16,16H17V17H16zM17,16H18V17H17zM18,16H19V17H18zM19,16H20V17H19zM20,16H21V17H20zM21,16H22V17H21zM22,16H23V17H22zM26,16H27V17H26zM28,16H29V17H28zM29,16H30V17H29zM30,16H31V17H30zM32,16H33V17H32zM35,16H36V17H35zM36,16H37V17H36zM37,16H38V17H37zM41,16H42V17H41zM42,16H43V17H42zM44,16H45V17H44zM46,16H47V17H46zM47,16H48V17H47zM49,16H50V17H49zM50,16H51V17H50zM7,17H8V18H7zM9,17H10V18H9zM10,17H11V18H10zM12,17H13V18H12zM15,17H16V18H15zM16,17H17V18H16zM17,17H18V18H17zM20,17H21V18H20zM21,17H22V18H21zM22,17H23V18H22zM23,17H24V18H23zM24,17H25V18H24zM25,17H26V18H25zM28,17H29V18H28zM30,17H31V18H30zM33,17H34V18H33zM35,17H36V18H35zM37,17H38V18H37zM39,17H40V18H39zM41,17H42V18H41zM42,17H43V18H42zM43,17H44V18H43zM44,17H45V18H44zM46,17H47V18H46zM49,17H50V18H49zM50,17H51V18H50zM4,18H5V19H4zM7,18H8V19H7zM8,18H9V19H8zM12,18H13V19H12zM15,18H16V19H15zM16,18H17V19H16zM17,18H18V19H17zM18,18H19V19H18zM20,18H21V19H20zM21,18H22V19H21zM22,18H23V19H22zM30,18H31V19H30zM31,18H32V19H31zM36,18H37V19H36zM37,18H38V19H37zM38,18H39V19H38zM40,18H41V19H40zM42,18H43V19H42zM44,18H45V19H44zM47,18H48V19H47zM48,18H49V19H48zM49,18H50V19H49zM50,18H51V19H50zM5,19H6V20H5zM11,19H12V20H11zM12,19H13V20H12zM16,19H17V20H16zM17,19H18V20H17zM18,19H19V20H18zM21,19H22V20H21zM22,19H23V20H22zM23,19H24V20H23zM24,19H25V20H24zM25,19H26V20H25zM26,19H27V20H26zM27,19H28V20H27zM31,19H32V20H31zM34,19H35V20H34zM37,19H38V20H37zM38,19H39V20H38zM41,19H42V20H41zM43,19H44V20H43zM44,19H45V20H44zM47,19H48V20H47zM48,19H49V20H48zM49,19H50V20H49zM2,20H3V21H2zM4,20H5V21H4zM5,20H6V21H5zM6,20H7V21H6zM7,20H8V21H7zM8,20H9V21H8zM10,20H11V21H10zM11,20H12V21H11zM12,20H13V21H12zM16,20H17V21H16zM17,20H18V21H17zM18,20H19V21H18zM19,20H20V21H19zM20,20H21V21H20zM21,20H22V21H21zM23,20H24V21H23zM24,20H25V21H24zM25,20H26V21H25zM26,20H27V21H26zM27,20H28V21H27zM33,20H34V21H33zM36,20H37V21H36zM37,20H38V21H37zM38,20H39V21H38zM40,20H41V21H40zM41,20H42V21H41zM42,20H43V21H42zM43,20H44V21H43zM44,20H45V21H44zM47,20H48V21H47zM50,20H51V21H50zM3,21H4V22H3zM4,21H5V22H4zM5,21H6V22H5zM7,21H8V22H7zM13,21H14V22H13zM14,21H15V22H14zM15,21H16V22H15zM16,21H17V22H16zM19,21H20V22H19zM24,21H25V22H24zM25,21H26V22H25zM26,21H27V22H26zM31,21H32V22H31zM32,21H33V22H32zM33,21H34V22H33zM36,21H37V22H36zM39,21H40V22H39zM40,21H41V22H40zM44,21H45V22H44zM45,21H46V22H45zM46,21H47V22H46zM49,21H50V22H49zM50,21H51V22H50zM2,22H3V23H2zM5,22H6V23H5zM7,22H8V23H7zM8,22H9V23H8zM10,22H11V23H10zM15,22H16V23H15zM16,22H17V23H16zM17,22H18V23H17zM18,22H19V23H18zM19,22H20V23H19zM20,22H21V23H20zM26,22H27V23H26zM29,22H30V23H29zM31,22H32V23H31zM34,22H35V23H34zM35,22H36V23H35zM36,22H37V23H36zM37,22H38V23H37zM38,22H39V23H38zM39,22H40V23H39zM40,22H41V23H40zM44,22H45V23H44zM45,22H46V23H45zM48,22H49V23H48zM49,22H50V23H49zM50,22H51V23H50zM9,23H10V24H9zM10,23H11V24H10zM12,23H13V24H12zM13,23H14V24H13zM14,23H15V24H14zM15,23H16V24H15zM16,23H17V24H16zM17,23H18V24H17zM19,23H20V24H19zM21,23H22V24H21zM27,23H28V24H27zM28,23H29V24H28zM29,23H30V24H29zM30,23H31V24H30zM31,23H32V24H31zM35,23H36V24H35zM43,23H44V24H43zM44,23H45V24H44zM47,23H48V24H47zM6,24H7V25H6zM7,24H8V25H7zM8,24H9V25H8zM9,24H10V25H9zM10,24H11V25H10zM12,24H13V25H12zM13,24H14V25H13zM16,24H17V25H16zM17,24H18V25H17zM18,24H19V25H18zM21,24H22V25H21zM22,24H23V25H22zM23,24H24V25H23zM24,24H25V25H24zM25,24H26V25H25zM26,24H27V25H26zM27,24H28V25H27zM28,24H29V25H28zM29,24H30V25H29zM32,24H33V25H32zM36,24H37V25H36zM38,24H39V25H38zM40,24H41V25H40zM42,24H43V25H42zM43,24H44V25H43zM44,24H45V25H44zM45,24H46V25H45zM46,24H47V25H46zM48,24H49V25H48zM49,24H50V25H49zM50,24H51V25H50zM3,25H4V26H3zM4,25H5V26H4zM5,25H6V26H5zM6,25H7V26H6zM10,25H11V26H10zM11,25H12V26H11zM12,25H13V26H12zM14,25H15V26H14zM18,25H19V26H18zM19,25H20V26H19zM22,25H23V26H22zM24,25H25V26H24zM28,25H29V26H28zM30,25H31V26H30zM31,25H32V26H31zM32,25H33V26H32zM33,25H34V26H33zM35,25H36V26H35zM36,25H37V26H36zM39,25H40V26H39zM42,25H43V26H42zM46,25H47V26H46zM47,25H48V26H47zM2,26H3V27H2zM6,26H7V27H6zM8,26H9V27H8zM10,26H11V27H10zM11,26H12V27H11zM14,26H15V27H14zM16,26H17V27H16zM17,26H18V27H17zM18,26H19V27H18zM20,26H21V27H20zM24,26H25V27H24zM26,26H27V27H26zM28,26H29V27H28zM30,26H31V27H30zM32,26H33V27H32zM37,26H38V27H37zM38,26H39V27H38zM41,26H42V27H41zM42,26H43V27H42zM44,26H45V27H44zM46,26H47V27H46zM48,26H49V27H48zM50,26H51V27H50zM2,27H3V28H2zM4,27H5V28H4zM6,27H7V28H6zM10,27H11V28H10zM15,27H16V28H15zM18,27H19V28H18zM21,27H22V28H21zM23,27H24V28H23zM24,27H25V28H24zM28,27H29V28H28zM31,27H32V28H31zM33,27H34V28H33zM39,27H40V28H39zM41,27H42V28H41zM42,27H43V28H42zM46,27H47V28H46zM47,27H48V28H47zM49,27H50V28H49zM4,28H5V29H4zM6,28H7V29H6zM7,28H8V29H7zM8,28H9V29H8zM9,28H10V29H9zM10,28H11V29H10zM11,28H12V29H11zM12,28H13V29H12zM14,28H15V29H14zM15,28H16V29H15zM16,28H17V29H16zM18,28H19V29H18zM21,28H22V29H21zM22,28H23V29H22zM24,28H25V29H24zM25,28H26V29H25zM26,28H27V29H26zM27,28H28V29H27zM28,28H29V29H28zM29,28H30V29H29zM30,28H31V29H30zM31,28H32V29H31zM36,28H37V29H36zM37,28H38V29H37zM40,28H41V29H40zM41,28H42V29H41zM42,28H43V29H42zM43,28H44V29H43zM44,28H45V29H44zM45,28H46V29H45zM46,28H47V29H46zM47,28H48V29H47zM48,28H49V29H48zM49,28H50V29H49zM50,28H51V29H50zM4,29H5V30H4zM7,29H8V30H7zM10,29H11V30H10zM12,29H13V30H12zM15,29H16V30H15zM18,29H19V30H18zM21,29H22V30H21zM26,29H27V30H26zM27,29H28V30H27zM30,29H31V30H30zM34,29H35V30H34zM36,29H37V30H36zM37,29H38V30H37zM39,29H40V30H39zM42,29H43V30H42zM43,29H44V30H43zM45,29H46V30H45zM47,29H48V30H47zM49,29H50V30H49zM50,29H51V30H50zM6,30H7V31H6zM8,30H9V31H8zM10,30H11V31H10zM15,30H16V31H15zM17,30H18V31H17zM18,30H19V31H18zM21,30H22V31H21zM22,30H23V31H22zM23,30H24V31H23zM24,30H25V31H24zM26,30H27V31H26zM27,30H28V31H27zM33,30H34V31H33zM37,30H38V31H37zM38,30H39V31H38zM39,30H40V31H39zM40,30H41V31H40zM41,30H42V31H41zM43,30H44V31H43zM45,30H46V31H45zM46,30H47V31H46zM47,30H48V31H47zM48,30H49V31H48zM49,30H50V31H49zM50,30H51V31H50zM2,31H3V32H2zM3,31H4V32H3zM6,31H7V32H6zM9,31H10V32H9zM11,31H12V32H11zM12,31H13V32H12zM16,31H17V32H16zM17,31H18V32H17zM18,31H19V32H18zM19,31H20V32H19zM20,31H21V32H20zM21,31H22V32H21zM22,31H23V32H22zM23,31H24V32H23zM24,31H25V32H24zM25,31H26V32H25zM27,31H28V32H27zM28,31H29V32H28zM29,31H30V32H29zM34,31H35V32H34zM37,31H38V32H37zM39,31H40V32H39zM41,31H42V32H41zM42,31H43V32H42zM43,31H44V32H43zM44,31H45V32H44zM45,31H46V32H45zM48,31H49V32H48zM6,32H7V33H6zM7,32H8V33H7zM8,32H9V33H8zM10,32H11V33H10zM11,32H12V33H11zM12,32H13V33H12zM14,32H15V33H14zM15,32H16V33H15zM16,32H17V33H16zM18,32H19V33H18zM19,32H20V33H19zM20,32H21V33H20zM22,32H23V33H22zM23,32H24V33H23zM24,32H25V33H24zM25,32H26V33H25zM26,32H27V33H26zM29,32H30V33H29zM30,32H31V33H30zM32,32H33V33H32zM35,32H36V33H35zM36,32H37V33H36zM38,32H39V33H38zM40,32H41V33H40zM41,32H42V33H41zM42,32H43V33H42zM43,32H44V33H43zM44,32H45V33H44zM46,32H47V33H46zM47,32H48V33H47zM48,32H49V33H48zM50,32H51V33H50zM2,33H3V34H2zM4,33H5V34H4zM7,33H8V34H7zM10,33H11V34H10zM11,33H12V34H11zM12,33H13V34H12zM14,33H15V34H14zM15,33H16V34H15zM17,33H18V34H17zM19,33H20V34H19zM20,33H21V34H20zM22,33H23V34H22zM23,33H24V34H23zM28,33H29V34H28zM29,33H30V34H29zM31,33H32V34H31zM32,33H33V34H32zM36,33H37V34H36zM39,33H40V34H39zM40,33H41V34H40zM42,33H43V34H42zM43,33H44V34H43zM50,33H51V34H50zM2,34H3V35H2zM5,34H6V35H5zM8,34H9V35H8zM9,34H10V35H9zM12,34H13V35H12zM15,34H16V35H15zM17,34H18V35H17zM18,34H19V35H18zM20,34H21V35H20zM25,34H26V35H25zM26,34H27V35H26zM30,34H31V35H30zM31,34H32V35H31zM32,34H33V35H32zM33,34H34V35H33zM34,34H35V35H34zM36,34H37V35H36zM37,34H38V35H37zM38,34H39V35H38zM39,34H40V35H39zM40,34H41V35H40zM41,34H42V35H41zM42,34H43V35H42zM43,34H44V35H43zM47,34H48V35H47zM48,34H49V35H48zM49,34H50V35H49zM50,34H51V35H50zM2,35H3V36H2zM3,35H4V36H3zM4,35H5V36H4zM5,35H6V36H5zM10,35H11V36H10zM11,35H12V36H11zM12,35H13V36H12zM13,35H14V36H13zM14,35H15V36H14zM15,35H16V36H15zM16,35H17V36H16zM17,35H18V36H17zM19,35H20V36H19zM21,35H22V36H21zM25,35H26V36H25zM28,35H29V36H28zM29,35H30V36H29zM32,35H33V36H32zM34,35H35V36H34zM38,35H39V36H38zM39,35H40V36H39zM42,35H43V36H42zM43,35H44V36H43zM45,35H46V36H45zM47,35H48V36H47zM3,36H4V37H3zM6,36H7V37H6zM7,36H8V37H7zM8,36H9V37H8zM12,36H13V37H12zM14,36H15V37H14zM16,36H17V37H16zM21,36H22V37H21zM23,36H24V37H23zM24,36H25V37H24zM27,36H28V37H27zM28,36H29V37H28zM30,36H31V37H30zM32,36H33V37H32zM33,36H34V37H33zM34,36H35V37H34zM36,36H37V37H36zM37,36H38V37H37zM38,36H39V37H38zM39,36H40V37H39zM40,36H41V37H40zM42,36H43V37H42zM44,36H45V37H44zM48,36H49V37H48zM49,36H50V37H49zM50,36H51V37H50zM3,37H4V38H3zM4,37H5V38H4zM5,37H6V38H5zM6,37H7V38H6zM9,37H10V38H9zM10,37H11V38H10zM11,37H12V38H11zM12,37H13V38H12zM15,37H16V38H15zM17,37H18V38H17zM20,37H21V38H20zM22,37H23V38H22zM25,37H26V38H25zM26,37H27V38H26zM28,37H29V38H28zM30,37H31V38H30zM31,37H32V38H31zM32,37H33V38H32zM33,37H34V38H33zM36,37H37V38H36zM39,37H40V38H39zM42,37H43V38H42zM45,37H46V38H45zM3,38H4V39H3zM8,38H9V39H8zM9,38H10V39H9zM11,38H12V39H11zM12,38H13V39H12zM13,38H14V39H13zM15,38H16V39H15zM18,38H19V39H18zM24,38H25V39H24zM25,38H26V39H25zM26,38H27V39H26zM27,38H28V39H27zM28,38H29V39H28zM29,38H30V39H29zM33,38H34V39H33zM35,38H36V39H35zM37,38H38V39H37zM38,38H39V39H38zM40,38H41V39H40zM41,38H42V39H41zM42,38H43V39H42zM44,38H45V39H44zM46,38H47V39H46zM47,38H48V39H47zM50,38H51V39H50zM2,39H3V40H2zM3,39H4V40H3zM6,39H7V40H6zM7,39H8V40H7zM10,39H11V40H10zM15,39H16V40H15zM19,39H20V40H19zM21,39H22V40H21zM23,39H24V40H23zM24,39H25V40H24zM26,39H27V40H26zM32,39H33V40H32zM33,39H34V40H33zM34,39H35V40H34zM37,39H38V40H37zM38,39H39V40H38zM39,39H40V40H39zM43,39H44V40H43zM44,39H45V40H44zM48,39H49V40H48zM49,39H50V40H49zM3,40H4V41H3zM7,40H8V41H7zM8,40H9V41H8zM11,40H12V41H11zM12,40H13V41H12zM13,40H14V41H13zM15,40H16V41H15zM16,40H17V41H16zM17,40H18V41H17zM20,40H21V41H20zM22,40H23V41H22zM24,40H25V41H24zM25,40H26V41H25zM27,40H28V41H27zM28,40H29V41H28zM30,40H31V41H30zM33,40H34V41H33zM34,40H35V41H34zM40,40H41V41H40zM41,40H42V41H41zM42,40H43V41H42zM43,40H44V41H43zM44,40H45V41H44zM45,40H46V41H45zM48,40H49V41H48zM49,40H50V41H49zM50,40H51V41H50zM3,41H4V42H3zM4,41H5V42H4zM5,41H6V42H5zM10,41H11V42H10zM11,41H12V42H11zM12,41H13V42H12zM16,41H17V42H16zM19,41H20V42H19zM21,41H22V42H21zM23,41H24V42H23zM24,41H25V42H24zM26,41H27V42H26zM30,41H31V42H30zM31,41H32V42H31zM33,41H34V42H33zM34,41H35V42H34zM35,41H36V42H35zM36,41H37V42H36zM39,41H40V42H39zM40,41H41V42H40zM43,41H44V42H43zM45,41H46V42H45zM50,41H51V42H50zM2,42H3V43H2zM3,42H4V43H3zM4,42H5V43H4zM8,42H9V43H8zM10,42H11V43H10zM13,42H14V43H13zM14,42H15V43H14zM15,42H16V43H15zM16,42H17V43H16zM19,42H20V43H19zM24,42H25V43H24zM25,42H26V43H25zM26,42H27V43H26zM27,42H28V43H27zM28,42H29V43H28zM29,42H30V43H29zM30,42H31V43H30zM32,42H33V43H32zM33,42H34V43H33zM35,42H36V43H35zM37,42H38V43H37zM38,42H39V43H38zM40,42H41V43H40zM41,42H42V43H41zM42,42H43V43H42zM43,42H44V43H43zM44,42H45V43H44zM45,42H46V43H45zM46,42H47V43H46zM48,42H49V43H48zM10,43H11V44H10zM11,43H12V44H11zM14,43H15V44H14zM15,43H16V44H15zM17,43H18V44H17zM19,43H20V44H19zM21,43H22V44H21zM22,43H23V44H22zM24,43H25V44H24zM28,43H29V44H28zM30,43H31V44H30zM31,43H32V44H31zM34,43H35V44H34zM35,43H36V44H35zM39,43H40V44H39zM42,43H43V44H42zM46,43H47V44H46zM49,43H50V44H49zM2,44H3V45H2zM3,44H4V45H3zM4,44H5V45H4zM5,44H6V45H5zM6,44H7V45H6zM7,44H8V45H7zM8,44H9V45H8zM15,44H16V45H15zM16,44H17V45H16zM17,44H18V45H17zM18,44H19V45H18zM20,44H21V45H20zM21,44H22V45H21zM23,44H24V45H23zM24,44H25V45H24zM26,44H27V45H26zM28,44H29V45H28zM31,44H32V45H31zM35,44H36V45H35zM38,44H39V45H38zM40,44H41V45H40zM42,44H43V45H42zM44,44H45V45H44zM46,44H47V45H46zM47,44H48V45H47zM50,44H51V45H50zM2,45H3V46H2zM8,45H9V46H8zM17,45H18V46H17zM19,45H20V46H19zM20,45H21V46H20zM24,45H25V46H24zM28,45H29V46H28zM29,45H30V46H29zM32,45H33V46H32zM33,45H34V46H33zM34,45H35V46H34zM37,45H38V46H37zM39,45H40V46H39zM40,45H41V46H40zM41,45H42V46H41zM42,45H43V46H42zM46,45H47V46H46zM49,45H50V46H49zM2,46H3V47H2zM4,46H5V47H4zM5,46H6V47H5zM6,46H7V47H6zM8,46H9V47H8zM10,46H11V47H10zM11,46H12V47H11zM14,46H15V47H14zM16,46H17V47H16zM18,46H19V47H18zM19,46H20V47H19zM23,46H24V47H23zM24,46H25V47H24zM25,46H26V47H25zM26,46H27V47H26zM27,46H28V47H27zM28,46H29V47H28zM29,46H30V47H29zM30,46H31V47H30zM31,46H32V47H31zM33,46H34V47H33zM35,46H36V47H35zM37,46H38V47H37zM38,46H39V47H38zM39,46H40V47H39zM40,46H41V47H40zM41,46H42V47H41zM42,46H43V47H42zM43,46H44V47H43zM44,46H45V47H44zM45,46H46V47H45zM46,46H47V47H46zM48,46H49V47H48zM49,46H50V47H49zM50,46H51V47H50zM2,47H3V48H2zM4,47H5V48H4zM5,47H6V48H5zM6,47H7V48H6zM8,47H9V48H8zM10,47H11V48H10zM11,47H12V48H11zM14,47H15V48H14zM15,47H16V48H15zM16,47H17V48H16zM19,47H20V48H19zM20,47H21V48H20zM21,47H22V48H21zM23,47H24V48H23zM24,47H25V48H24zM26,47H27V48H26zM27,47H28V48H27zM29,47H30V48H29zM31,47H32V48H31zM32,47H33V48H32zM35,47H36V48H35zM37,47H38V48H37zM38,47H39V48H38zM39,47H40V48H39zM42,47H43V48H42zM44,47H45V48H44zM46,47H47V48H46zM47,47H48V48H47zM49,47H50V48H49zM50,47H51V48H50zM2,48H3V49H2zM4,48H5V49H4zM5,48H6V49H5zM6,48H7V49H6zM8,48H9V49H8zM10,48H11V49H10zM14,48H15V49H14zM19,48H20V49H19zM23,48H24V49H23zM24,48H25V49H24zM25,48H26V49H25zM26,48H27V49H26zM27,48H28V49H27zM28,48H29V49H28zM31,48H32V49H31zM33,48H34V49H33zM36,48H37V49H36zM38,48H39V49H38zM39,48H40V49H39zM40,48H41V49H40zM43,48H44V49H43zM45,48H46V49H45zM47,48H48V49H47zM49,48H50V49H49zM50,48H51V49H50zM2,49H3V50H2zM8,49H9V50H8zM12,49H13V50H12zM13,49H14V50H13zM14,49H15V50H14zM15,49H16V50H15zM16,49H17V50H16zM20,49H21V50H20zM21,49H22V50H21zM25,49H26V50H25zM27,49H28V50H27zM28,49H29V50H28zM29,49H30V50H29zM30,49H31V50H30zM31,49H32V50H31zM34,49H35V50H34zM39,49H40V50H39zM40,49H41V50H40zM42,49H43V50H42zM43,49H44V50H43zM44,49H45V50H44zM46,49H47V50H46zM47,49H48V50H47zM50,49H51V50H50zM2,50H3V51H2zM3,50H4V51H3zM4,50H5V51H4zM5,50H6V51H5zM6,50H7V51H6zM7,50H8V51H7zM8,50H9V51H8zM11,50H12V51H11zM12,50H13V51H12zM17,50H18V51H17zM18,50H19V51H18zM23,50H24V51H23zM30,50H31V51H30zM32,50H33V51H32zM33,50H34V51H33zM35,50H36V51H35zM38,50H39V51H38zM39,50H40V51H39zM40,50H41V51H40zM42,50H43V51H42zM43,50H44V51H43zM44,50H45V51H44zM45,50H46V51H45zM46,50H47V51H46zM48,50H49V51H48zM49,50H50V51H49zM50,50H51V51H50z" id="qr-path" fill="#000000" fill-opacity="1" fill-rule="nonzero" stroke="none"/></svg>