<?xml version='1.0' encoding='UTF-8'?>
<svg width="53mm" height="53mm" version="1.1" viewBox="0 0 53 53" xmlns="http://www.w3.org/2000/svg"><path d="M2,2H3V3H2zM3,2H4V3H3zM4,2H5V3H4zM5,2H6V3H5zM6,2H7V3H6zM7,2H8V3H7zM8,2H9V3H8zM11,2H12V3H11zM13,2H14V3H13zM14,2H15V3H14zM16,2H17V3H16zM17,2H18V3H17zM18,2H19V3H18zM20,2H21V3H20zM21,2H22V3H21zM22,2H23V3H22zM23,2H24V3H23zM24,2H25V3H24zM26,2H27V3H26zM28,2H29V3H28zM32,2H33V3H32zM33,2H34V3H33zM37,2H38V3H37zM39,2H40V3H39zM42,2H43V3H42zM44,2H45V3H44zM45,2H46V3H45zM46,2H47V3H46zM47,2H48V3H47zM48,2H49V3H48zM49,2H50V3H49zM50,2H51V3H50zM2,3H3V4H2zM8,3H9V4H8zM11,3H12V4H11zM12,3H13V4H12zM14,3H15V4H14zM15,3H16V4H15zM16,3H17V4H16zM19,3H20V4H19zM22,3H23V4H22zM23,3H24V4H23zM28,3H29V4H28zM29,3H30V4H29zM31,3H32V4H31zM33,3H34V4H33zM34,3H35V4H34zM36,3H37V4H36zM39,3H40V4H39zM40,3H41V4H40zM41,3H42V4H41zM42,3H43V4H42zM44,3H45V4H44zM50,3H51V4H50zM2,4H3V5H2zM4,4H5V5H4zM5,4H6V5H5zM6,4H7V5H6zM8,4H9V5H8zM12,4H13V5H12zM13,4H14V5H13zM14,4H15V5H14zM19,4H20V5H19zM22,4H23V5H22zM25,4H26V5H25zM26,4H27V5H26zM27,4H28V5H27zM28,4H29V5H28zM29,4H30V5H29zM31,4H32V5H31zM32,4H33V5H32zM33,4H34V5H33zM34,4H35V5H34zM35,4H36V5H35zM38,4H39V5H38zM39,4H40V5H39zM41,4H42V5H41zM42,4H43V5H42zM44,4H45V5H44zM46,4H47V5H46zM47,4H48V5H47zM48,4H49V5H48zM50,4H51V5H50zM2,5H3V6H2zM4,5H5V6H4zM5,5H6V6H5zM6,5H7V6H6zM8,5H9V6H8zM13,5H14V6H13zM17,5H18V6H17zM18,5H19V6H18zM19,5H20V6H19zM20,5H21V6H20zM22,5H23V6H22zM25,5H26V6H25zM27,5H28V6H27zM28,5H29V6H28zM29,5H30V6H29zM31,5H32V6H31zM33,5H34V6H33zM37,5H38V6H37zM38,5H39V6H38zM39,5H40V6H39zM41,5H42V6H41zM44,5H45V6H44zM46,5H47V6H46zM47,5H48V6H47zM48,5H49V6H48zM50,5H51V6H50zM2,6H3V7H2zM4,6H5V7H4zM5,6H6V7H5zM6,6H7V7H6zM8,6H9V7H8zM10,6H11V7H10zM11,6H12V7H11zM13,6H14V7H13zM14,6H15V7H14zM15,6H16V7H15zM16,6H17V7H16zM17,6H18V7H17zM20,6H21V7H20zM23,6H24V7H23zM24,6H25V7H24zM25,6H26V7H25zM26,6H27V7H26zM27,6H28V7H27zM28,6H29V7H28zM31,6H32V7H31zM32,6H33V7H32zM33,6H34V7H33zM39,6H40V7H39zM44,6H45V7H44zM46,6H47V7H46zM47,6H48V7H47zM48,6H49V7H48zM50,6H51V7H50zM2,7H3V8H2zM8,7H9V8H8zM12,7H13V8H12zM18,7H19V8H18zM24,7H25V8H24zM28,7H29V8H28zM31,7H32V8H31zM32,7H33V8H32zM33,7H34V8H33zM37,7H38V8H37zM40,7H41V8H40zM44,7H45V8H44zM50,7H51V8H50zM2,8H3V9H2zM3,8H4V9H3zM4,8H5V9H4zM5,8H6V9H5zM6,8H7V9H6zM7,8H8V9H7zM8,8H9V9H8zM10,8H11V9H10zM12,8H13V9H12zM14,8H15V9H14zM16,8H17V9H16zM18,8H19V9H18zM20,8H21V9H20zM22,8H23V9H22zM24,8H25V9H24zM26,8H27V9H26zM28,8H29V9H28zM30,8H31V9H30zM32,8H33V9H32zM34,8H35V9H34zM36,8H37V9H36zM38,8H39V9H38zM40,8H41V9H40zM42,8H43V9H42zM44,8H45V9H44zM45,8H46V9H45zM46,8H47V9H46zM47,8H48V9H47zM48,8H49V9H48zM49,8H50V9H49zM50,8H51V9H50zM10,9H11V10H10zM11,9H12V10H11zM14,9H15V10H14zM18,9H19V10H18zM19,9H20V10H19zM20,9H21V10H20zM21,9H22V10H21zM24,9H25V10H24zM28,9H29V10H28zM29,9H30V10H29zM30,9H31V10H30zM31,9H32V10H31zM33,9H34V10H33zM34,9H35V10H34zM40,9H41V10H40zM4,10H5V11H4zM5,10H6V11H5zM8,10H9V11H8zM9,10H10V11H9zM10,10H11V11H10zM12,10H13V11H12zM13,10H14V11H13zM14,10H15V11H14zM15,10H16V11H15zM16,10H17V11H16zM20,10H21V11H20zM21,10H22V11H21zM23,10H24V11H23zM24,10H25V11H24zM25,10H26V11H25zM26,10H27V11H26zM27,10H28V11H27zM28,10H29V11H28zM30,10H31V11H30zM32,10H33V11H32zM35,10H36V11H35zM36,10H37V11H36zM40,10H41V11H40zM43,10H44V11H43zM44,10H45V11H44zM46,10H47V11H46zM2,11H3V12H2zM4,11H5V12H4zM7,11H8V12H7zM10,11H11V12H10zM13,11H14V12H13zM14,11H15V12H14zM17,11H18V12H17zM19,11H20V12H19zM22,11H23V12H22zM23,11H24V12H23zM24,11H25V12H24zM25,11H26V12H25zM28,11H29V12H28zM30,11H31V12H30zM31,11H32V12H31zM37,11H38V12H37zM38,11H39V12H38zM43,11H44V12H43zM44,11H45V12H44zM45,11H46V12H45zM47,11H48V12H47zM2,12H3V13H2zM4,12H5V13H4zM5,12H6V13H5zM6,12H7V13H6zM7,12H8V13H7zM8,12H9V13H8zM11,12H12V13H11zM13,12H14V13H13zM14,12H15V13H14zM22,12H23V13H22zM24,12H25V13H24zM25,12H26V13H25zM27,12H28V13H27zM30,12H31V13H30zM32,12H33V13H32zM34,12H35V13H34zM35,12H36V13H35zM36,12H37V13H36zM37,12H38V13H37zM41,12H42V13H41zM43,12H44V13H43zM44,12H45V13H44zM45,12H46V13H45zM47,12H48V13H47zM48,12H49V13H48zM2,13H3V14H2zM4,13H5V14H4zM5,13H6V14H5zM6,13H7V14H6zM9,13H10V14H9zM13,13H14V14H13zM14,13H15V14H14zM15,13H16V14H15zM16,13H17V14H16zM18,13H19V14H18zM19,13H20V14H19zM20,13H21V14H20zM23,13H24V14H23zM24,13H25V14H24zM25,13H26V14H25zM26,13H27V14H26zM28,13H29V14H28zM32,13H33V14H32zM34,13H35V14H34zM35,13H36V14H35zM38,13H39V14H38zM41,13H42V14H41zM42,13H43V14H42zM45,13H46V14H45zM46,13H47V14H46zM47,13H48V14H47zM48,13H49V14H48zM49,13H50V14H49zM50,13H51V14H50zM4,14H5V15H4zM7,14H8V15H7zM8,14H9V15H8zM9,14H10V15H9zM10,14H11V15H10zM12,14H13V15H12zM17,14H18V15H17zM19,14H20V15H19zM21,14H22V15H21zM24,14H25V15H24zM26,14H27V15H26zM28,14H29V15H28zM29,14H30V15H29zM30,14H31V15H30zM32,14H33V15H32zM33,14H34V15H33zM36,14H37V15H36zM37,14H38V15H37zM38,14H39V15H38zM39,14H40V15H39zM41,14H42V15H41zM42,14H43V15H42zM43,14H44V15H43zM45,14H46V15H45zM47,14H48V15H47zM48,14H49V15H48zM49,14H50V15H49zM7,15H8V16H7zM9,15H10V16H9zM10,15H11V16H10zM11,15H12V16H11zM12,15H13V16H12zM15,15H16V16H15zM18,15H19V16H18zM19,15H20V16H19zM21,15H22V16H21zM22,15H23V16H22zM24,15H25V16H24zM29,15H30V16H29zM30,15H31V16H30zM32,15H33V16H32zM33,15H34V16H33zM35,15H36V16H35zM37,15H38V16H37zM39,15H40V16H39zM40,15H41V16H40zM45,15H46V16H45zM46,15H47V16H46zM47,15H48V16H47zM48,15H49V16H48zM49,15H50V16H49zM50,15H51V16H50zM2,16H3V17H2zM3,16H4V17H3zM8,16H9V17H8zM10,16H11V17H10zM12,16H13V17H12zM13,16H14V17H13zM17,16H18V17H17zM22,16H23V17H22zM23,16H24V17H23zM24,16H25V17H24zM27,16H28V17H27zM28,16H29V17H28zM33,16H34V17H33zM35,16H36V17H35zM37,16H38V17H37zM39,16H40V17H39zM40,16H41V17H40zM44,16H45V17H44zM45,16H46V17H45zM46,16H47V17H46zM47,16H48V17H47zM48,16H49V17H48zM49,16H50V17H49zM7,17H8V18H7zM9,17H10V18H9zM10,17H11V18H10zM12,17H13V18H12zM13,17H14V18H13zM15,17H16V18H15zM16,17H17V18H16zM18,17H19V18H18zM21,17H22V18H21zM23,17H24V18H23zM24,17H25V18H24zM25,17H26V18H25zM28,17H29V18H28zM30,17H31V18H30zM31,17H32V18H31zM32,17H33V18H32zM33,17H34V18H33zM36,17H37V18H36zM39,17H40V18H39zM40,17H41V18H40zM41,17H42V18H41zM42,17H43V18H42zM44,17H45V18H44zM46,17H47V18H46zM49,17H50V18H49zM50,17H51V18H50zM5,18H6V19H5zM6,18H7V19H6zM7,18H8V19H7zM8,18H9V19H8zM10,18H11V19H10zM12,18H13V19H12zM13,18H14V19H13zM14,18H15V19H14zM16,18H17V19H16zM18,18H19V19H18zM19,18H20V19H19zM22,18H23V19H22zM23,18H24V19H23zM25,18H26V19H25zM26,18H27V19H26zM28,18H29V19H28zM29,18H30V19H29zM30,18H31V19H30zM31,18H32V19H31zM34,18H35V19H34zM36,18H37V19H36zM41,18H42V19H41zM46,18H47V19H46zM48,18H49V19H48zM2,19H3V20H2zM7,19H8V20H7zM9,19H10V20H9zM14,19H15V20H14zM18,19H19V20H18zM22,19H23V20H22zM25,19H26V20H25zM29,19H30V20H29zM30,19H31V20H30zM32,19H33V20H32zM33,19H34V20H33zM34,19H35V20H34zM35,19H36V20H35zM37,19H38V20H37zM38,19H39V20H38zM40,19H41V20H40zM42,19H43V20H42zM45,19H46V20H45zM49,19H50V20H49zM50,19H51V20H50zM2,20H3V21H2zM4,20H5V21H4zM5,20H6V21H5zM6,20H7V21H6zM7,20H8V21H7zM8,20H9V21H8zM10,20H11V21H10zM11,20H12V21H11zM12,20H13V21H12zM13,20H14V21H13zM16,20H17V21H16zM19,20H20V21H19zM20,20H21V21H20zM22,20H23V21H22zM23,20H24V21H23zM24,20H25V21H24zM25,20H26V21H25zM26,20H27V21H26zM27,20H28V21H27zM32,20H33V21H32zM33,20H34V21H33zM35,20H36V21H35zM37,20H38V21H37zM38,20H39V21H38zM43,20H44V21H43zM44,20H45V21H44zM47,20H48V21H47zM50,20H51V21H50zM2,21H3V22H2zM3,21H4V22H3zM9,21H10V22H9zM10,21H11V22H10zM11,21H12V22H11zM15,21H16V22H15zM20,21H21V22H20zM21,21H22V22H21zM22,21H23V22H22zM23,21H24V22H23zM24,21H25V22H24zM27,21H28V22H27zM29,21H30V22H29zM34,21H35V22H34zM35,21H36V22H35zM36,21H37V22H36zM37,21H38V22H37zM38,21H39V22H38zM39,21H40V22H39zM43,21H44V22H43zM45,21H46V22H45zM47,21H48V22H47zM3,22H4V23H3zM8,22H9V23H8zM10,22H11V23H10zM11,22H12V23H11zM12,22H13V23H12zM16,22H17V23H16zM18,22H19V23H18zM19,22H20V23H19zM22,22H23V23H22zM23,22H24V23H23zM24,22H25V23H24zM28,22H29V23H28zM37,22H38V23H37zM40,22H41V23H40zM41,22H42V23H41zM47,22H48V23H47zM49,22H50V23H49zM7,23H8V24H7zM10,23H11V24H10zM12,23H13V24H12zM14,23H15V24H14zM15,23H16V24H15zM16,23H17V24H16zM17,23H18V24H17zM18,23H19V24H18zM19,23H20V24H19zM22,23H23V24H22zM23,23H24V24H23zM25,23H26V24H25zM26,23H27V24H26zM28,23H29V24H28zM29,23H30V24H29zM30,23H31V24H30zM32,23H33V24H32zM33,23H34V24H33zM35,23H36V24H35zM43,23H44V24H43zM44,23H45V24H44zM47,23H48V24H47zM2,24H3V25H2zM4,24H5V25H4zM5,24H6V25H5zM6,24H7V25H6zM7,24H8V25H7zM8,24H9V25H8zM9,24H10V25H9zM10,24H11V25H10zM11,24H12V25H11zM12,24H13V25H12zM19,24H20V25H19zM20,24H21V25H20zM21,24H22V25H21zM23,24H24V25H23zM24,24H25V25H24zM25,24H26V25H25zM26,24H27V25H26zM27,24H28V25H27zM28,24H29V25H28zM30,24H31V25H30zM31,24H32V25H31zM33,24H34V25H33zM34,24H35V25H34zM35,24H36V25H35zM36,24H37V25H36zM37,24H38V25H37zM41,24H42V25H41zM42,24H43V25H42zM43,24H44V25H43zM44,24H45V25H44zM45,24H46V25H45zM46,24H47V25H46zM47,24H48V25H47zM48,24H49V25H48zM2,25H3V26H2zM4,25H5V26H4zM6,25H7V26H6zM10,25H11V26H10zM13,25H14V26H13zM15,25H16V26H15zM18,25H19V26H18zM19,25H20V26H19zM20,25H21V26H20zM22,25H23V26H22zM23,25H24V26H23zM24,25H25V26H24zM28,25H29V26H28zM30,25H31V26H30zM31,25H32V26H31zM38,25H39V26H38zM42,25H43V26H42zM46,25H47V26H46zM48,25H49V26H48zM2,26H3V27H2zM4,26H5V27H4zM6,26H7V27H6zM8,26H9V27H8zM10,26H11V27H10zM11,26H12V27H11zM14,26H15V27H14zM16,26H17V27H16zM17,26H18V27H17zM18,26H19V27H18zM20,26H21V27H20zM24,26H25V27H24zM26,26H27V27H26zM28,26H29V27H28zM29,26H30V27H29zM30,26H31V27H30zM31,26H32V27H31zM37,26H38V27H37zM38,26H39V27H38zM42,26H43V27H42zM44,26H45V27H44zM46,26H47V27H46zM48,26H49V27H48zM4,27H5V28H4zM6,27H7V28H6zM10,27H11V28H10zM11,27H12V28H11zM13,27H14V28H13zM14,27H15V28H14zM15,27H16V28H15zM16,27H17V28H16zM17,27H18V28H17zM18,27H19V28H18zM19,27H20V28H19zM20,27H21V28H20zM21,27H22V28H21zM22,27H23V28H22zM24,27H25V28H24zM28,27H29V28H28zM32,27H33V28H32zM33,27H34V28H33zM34,27H35V28H34zM35,27H36V28H35zM37,27H38V28H37zM38,27H39V28H38zM39,27H40V28H39zM40,27H41V28H40zM41,27H42V28H41zM42,27H43V28H42zM46,27H47V28H46zM49,27H50V28H49zM50,27H51V28H50zM5,28H6V29H5zM6,28H7V29H6zM7,28H8V29H7zM8,28H9V29H8zM9,28H10V29H9zM10,28H11V29H10zM11,28H12V29H11zM12,28H13V29H12zM15,28H16V29H15zM16,28H17V29H16zM17,28H18V29H17zM20,28H21V29H20zM22,28H23V29H22zM23,28H24V29H23zM24,28H25V29H24zM25,28H26V29H25zM26,28H27V29H26zM27,28H28V29H27zM28,28H29V29H28zM30,28H31V29H30zM32,28H33V29H32zM33,28H34V29H33zM35,28H36V29H35zM37,28H38V29H37zM38,28H39V29H38zM39,28H40V29H39zM40,28H41V29H40zM42,28H43V29H42zM43,28H44V29H43zM44,28H45V29H44zM45,28H46V29H45zM46,28H47V29H46zM49,28H50V29H49zM2,29H3V30H2zM4,29H5V30H4zM5,29H6V30H5zM6,29H7V30H6zM11,29H12V30H11zM12,29H13V30H12zM15,29H16V30H15zM16,29H17V30H16zM18,29H19V30H18zM21,29H22V30H21zM23,29H24V30H23zM25,29H26V30H25zM26,29H27V30H26zM27,29H28V30H27zM28,29H29V30H28zM29,29H30V30H29zM30,29H31V30H30zM31,29H32V30H31zM33,29H34V30H33zM34,29H35V30H34zM36,29H37V30H36zM37,29H38V30H37zM39,29H40V30H39zM42,29H43V30H42zM43,29H44V30H43zM45,29H46V30H45zM47,29H48V30H47zM50,29H51V30H50zM2,30H3V31H2zM3,30H4V31H3zM6,30H7V31H6zM7,30H8V31H7zM8,30H9V31H8zM9,30H10V31H9zM10,30H11V31H10zM12,30H13V31H12zM13,30H14V31H13zM14,30H15V31H14zM15,30H16V31H15zM18,30H19V31H18zM21,30H22V31H21zM28,30H29V31H28zM29,30H30V31H29zM33,30H34V31H33zM34,30H35V31H34zM35,30H36V31H35zM39,30H40V31H39zM44,30H45V31H44zM46,30H47V31H46zM48,30H49V31H48zM3,31H4V32H3zM12,31H13V32H12zM14,31H15V32H14zM20,31H21V32H20zM22,31H23V32H22zM24,31H25V32H24zM25,31H26V32H25zM26,31H27V32H26zM27,31H28V32H27zM31,31H32V32H31zM33,31H34V32H33zM35,31H36V32H35zM36,31H37V32H36zM37,31H38V32H37zM38,31H39V32H38zM43,31H44V32H43zM46,31H47V32H46zM47,31H48V32H47zM49,31H50V32H49zM50,31H51V32H50zM4,32H5V33H4zM5,32H6V33H5zM6,32H7V33H6zM7,32H8V33H7zM8,32H9V33H8zM9,32H10V33H9zM11,32H12V33H11zM14,32H15V33H14zM18,32H19V33H18zM20,32H21V33H20zM22,32H23V33H22zM23,32H24V33H23zM24,32H25V33H24zM28,32H29V33H28zM29,32H30V33H29zM30,32H31V33H30zM34,32H35V33H34zM35,32H36V33H35zM36,32H37V33H36zM38,32H39V33H38zM40,32H41V33H40zM41,32H42V33H41zM42,32H43V33H42zM43,32H44V33H43zM44,32H45V33H44zM46,32H47V33H46zM47,32H48V33H47zM48,32H49V33H48zM50,32H51V33H50zM2,33H3V34H2zM3,33H4V34H3zM11,33H12V34H11zM12,33H13V34H12zM13,33H14V34H13zM15,33H16V34H15zM19,33H20V34H19zM23,33H24V34H23zM29,33H30V34H29zM30,33H31V34H30zM34,33H35V34H34zM37,33H38V34H37zM39,33H40V34H39zM41,33H42V34H41zM42,33H43V34H42zM44,33H45V34H44zM45,33H46V34H45zM47,33H48V34H47zM50,33H51V34H50zM2,34H3V35H2zM4,34H5V35H4zM5,34H6V35H5zM6,34H7V35H6zM8,34H9V35H8zM9,34H10V35H9zM12,34H13V35H12zM13,34H14V35H13zM14,34H15V35H14zM16,34H17V35H16zM17,34H18V35H17zM20,34H21V35H20zM22,34H23V35H22zM23,34H24V35H23zM26,34H27V35H26zM28,34H29V35H28zM29,34H30V35H29zM30,34H31V35H30zM31,34H32V35H31zM34,34H35V35H34zM37,34H38V35H37zM38,34H39V35H38zM40,34H41V35H40zM43,34H44V35H43zM44,34H45V35H44zM46,34H47V35H46zM49,34H50V35H49zM50,34H51V35H50zM3,35H4V36H3zM4,35H5V36H4zM11,35H12V36H11zM12,35H13V36H12zM15,35H16V36H15zM17,35H18V36H17zM18,35H19V36H18zM20,35H21V36H20zM22,35H23V36H22zM23,35H24V36H23zM24,35H25V36H24zM30,35H31V36H30zM32,35H33V36H32zM34,35H35V36H34zM39,35H40V36H39zM42,35H43V36H42zM43,35H44V36H43zM45,35H46V36H45zM2,36H3V37H2zM4,36H5V37H4zM6,36H7V37H6zM8,36H9V37H8zM9,36H10V37H9zM11,36H12V37H11zM12,36H13V37H12zM13,36H14V37H13zM17,36H18V37H17zM21,36H22V37H21zM22,36H23V37H22zM23,36H24V37H23zM26,36H27V37H26zM27,36H28V37H27zM28,36H29V37H28zM29,36H30V37H29zM31,36H32V37H31zM33,36H34V37H33zM36,36H37V37H36zM38,36H39V37H38zM39,36H40V37H39zM41,36H42V37H41zM42,36H43V37H42zM43,36H44V37H43zM45,36H46V37H45zM2,37H3V38H2zM3,37H4V38H3zM4,37H5V38H4zM11,37H12V38H11zM12,37H13V38H12zM14,37H15V38H14zM16,37H17V38H16zM17,37H18V38H17zM18,37H19V38H18zM19,37H20V38H19zM25,37H26V38H25zM28,37H29V38H28zM29,37H30V38H29zM31,37H32V38H31zM33,37H34V38H33zM34,37H35V38H34zM36,37H37V38H36zM37,37H38V38H37zM38,37H39V38H38zM40,37H41V38H40zM41,37H42V38H41zM44,37H45V38H44zM46,37H47V38H46zM47,37H48V38H47zM48,37H49V38H48zM50,37H51V38H50zM3,38H4V39H3zM4,38H5V39H4zM5,38H6V39H5zM7,38H8V39H7zM8,38H9V39H8zM12,38H13V39H12zM15,38H16V39H15zM16,38H17V39H16zM17,38H18V39H17zM19,38H20V39H19zM21,38H22V39H21zM22,38H23V39H22zM25,38H26V39H25zM27,38H28V39H27zM29,38H30V39H29zM33,38H34V39H33zM35,38H36V39H35zM36,38H37V39H36zM37,38H38V39H37zM38,38H39V39H38zM41,38H42V39H41zM42,38H43V39H42zM44,38H45V39H44zM46,38H47V39H46zM50,38H51V39H50zM3,39H4V40H3zM6,39H7V40H6zM10,39H11V40H10zM13,39H14V40H13zM15,39H16V40H15zM17,39H18V40H17zM19,39H20V40H19zM21,39H22V40H21zM22,39H23V40H22zM23,39H24V40H23zM26,39H27V40H26zM27,39H28V40H27zM29,39H30V40H29zM31,39H32V40H31zM39,39H40V40H39zM40,39H41V40H40zM41,39H42V40H41zM46,39H47V40H46zM47,39H48V40H47zM48,39H49V40H48zM50,39H51V40H50zM3,40H4V41H3zM7,40H8V41H7zM8,40H9V41H8zM9,40H10V41H9zM14,40H15V41H14zM16,40H17V41H16zM18,40H19V41H18zM21,40H22V41H21zM23,40H24V41H23zM25,40H26V41H25zM26,40H27V41H26zM28,40H29V41H28zM29,40H30V41H29zM32,40H33V41H32zM34,40H35V41H34zM39,40H40V41H39zM40,40H41V41H40zM43,40H44V41H43zM48,40H49V41H48zM49,40H50V41H49zM3,41H4V42H3zM4,41H5V42H4zM5,41H6V42H5zM9,41H10V42H9zM10,41H11V42H10zM12,41H13V42H12zM13,41H14V42H13zM17,41H18V42H17zM18,41H19V42H18zM20,41H21V42H20zM21,41H22V42H21zM23,41H24V42H23zM24,41H25V42H24zM27,41H28V42H27zM30,41H31V42H30zM32,41H33V42H32zM33,41H34V42H33zM35,41H36V42H35zM37,41H38V42H37zM43,41H44V42H43zM45,41H46V42H45zM47,41H48V42H47zM50,41H51V42H50zM2,42H3V43H2zM3,42H4V43H3zM4,42H5V43H4zM8,42H9V43H8zM11,42H12V43H11zM14,42H15V43H14zM18,42H19V43H18zM19,42H20V43H19zM21,42H22V43H21zM22,42H23V43H22zM23,42H24V43H23zM24,42H25V43H24zM25,42H26V43H25zM26,42H27V43H26zM27,42H28V43H27zM28,42H29V43H28zM30,42H31V43H30zM33,42H34V43H33zM34,42H35V43H34zM35,42H36V43H35zM39,42H40V43H39zM40,42H41V43H40zM42,42H43V43H42zM43,42H44V43H43zM44,42H45V43H44zM45,42H46V43H45zM46,42H47V43H46zM49,42H50V43H49zM50,42H51V43H50zM10,43H11V44H10zM11,43H12V44H11zM12,43H13V44H12zM14,43H15V44H14zM15,43H16V44H15zM19,43H20V44H19zM23,43H24V44H23zM24,43H25V44H24zM28,43H29V44H28zM29,43H30V44H29zM32,43H33V44H32zM36,43H37V44H36zM37,43H38V44H37zM38,43H39V44H38zM39,43H40V44H39zM41,43H42V44H41zM42,43H43V44H42zM46,43H47V44H46zM47,43H48V44H47zM48,43H49V44H48zM49,43H50V44H49zM50,43H51V44H50zM2,44H3V45H2zM3,44H4V45H3zM4,44H5V45H4zM5,44H6V45H5zM6,44H7V45H6zM7,44H8V45H7zM8,44H9V45H8zM10,44H11V45H10zM15,44H16V45H15zM16,44H17V45H16zM17,44H18V45H17zM18,44H19V45H18zM20,44H21V45H20zM22,44H23V45H22zM23,44H24V45H23zM24,44H25V45H24zM26,44H27V45H26zM28,44H29V45H28zM32,44H33V45H32zM33,44H34V45H33zM34,44H35V45H34zM38,44H39V45H38zM39,44H40V45H39zM42,44H43V45H42zM44,44H45V45H44zM46,44H47V45H46zM47,44H48V45H47zM50,44H51V45H50zM2,45H3V46H2zM8,45H9V46H8zM11,45H12V46H11zM14,45H15V46H14zM16,45H17V46H16zM18,45H19V46H18zM23,45H24V46H23zM24,45H25V46H24zM28,45H29V46H28zM29,45H30V46H29zM31,45H32V46H31zM33,45H34V46H33zM35,45H36V46H35zM38,45H39V46H38zM39,45H40V46H39zM42,45H43V46H42zM46,45H47V46H46zM47,45H48V46H47zM50,45H51V46H50zM2,46H3V47H2zM4,46H5V47H4zM5,46H6V47H5zM6,46H7V47H6zM8,46H9V47H8zM12,46H13V47H12zM13,46H14V47H13zM14,46H15V47H14zM15,46H16V47H15zM16,46H17V47H16zM17,46H18V47H17zM19,46H20V47H19zM20,46H21V47H20zM22,46H23V47H22zM24,46H25V47H24zM25,46H26V47H25zM26,46H27V47H26zM27,46H28V47H27zM28,46H29V47H28zM29,46H30V47H29zM32,46H33V47H32zM36,46H37V47H36zM37,46H38V47H37zM40,46H41V47H40zM42,46H43V47H42zM43,46H44V47H43zM44,46H45V47H44zM45,46H46V47H45zM46,46H47V47H46zM47,46H48V47H47zM49,46H50V47H49zM2,47H3V48H2zM4,47H5V48H4zM5,47H6V48H5zM6,47H7V48H6zM8,47H9V48H8zM10,47H11V48H10zM11,47H12V48H11zM15,47H16V48H15zM16,47H17V48H16zM17,47H18V48H17zM18,47H19V48H18zM19,47H20V48H19zM20,47H21V48H20zM21,47H22V48H21zM23,47H24V48H23zM24,47H25V48H24zM26,47H27V48H26zM27,47H28V48H27zM29,47H30V48H29zM30,47H31V48H30zM32,47H33V48H32zM35,47H36V48H35zM37,47H38V48H37zM38,47H39V48H38zM39,47H40V48H39zM41,47H42V48H41zM46,47H47V48H46zM47,47H48V48H47zM50,47H51V48H50zM2,48H3V49H2zM4,48H5V49H4zM5,48H6V49H5zM6,48H7V49H6zM8,48H9V49H8zM10,48H11V49H10zM11,48H12V49H11zM16,48H17V49H16zM20,48H21V49H20zM22,48H23V49H22zM24,48H25V49H24zM27,48H28V49H27zM29,48H30V49H29zM32,48H33V49H32zM33,48H34V49H33zM34,48H35V49H34zM35,48H36V49H35zM36,48H37V49H36zM37,48H38V49H37zM39,48H40V49H39zM41,48H42V49H41zM42,48H43V49H42zM45,48H46V49H45zM46,48H47V49H46zM2,49H3V50H2zM8,49H9V50H8zM11,49H12V50H11zM16,49H17V50H16zM17,49H18V50H17zM18,49H19V50H18zM21,49H22V50H21zM22,49H23V50H22zM23,49H24V50H23zM24,49H25V50H24zM25,49H26V50H25zM26,49H27V50H26zM28,49H29V50H28zM31,49H32V50H31zM33,49H34V50H33zM34,49H35V50H34zM35,49H36V50H35zM36,49H37V50H36zM38,49H39V50H38zM40,49H41V50H40zM43,49H44V50H43zM45,49H46V50H45zM46,49H47V50H46zM48,49H49V50H48zM2,50H3V51H2zM3,50H4V51H3zM4,50H5V51H4zM5,50H6V51H5zM6,50H7V51H6zM7,50H8V51H7zM8,50H9V51H8zM11,50H12V51H11zM12,50H13V51H12zM17,50H18V51H17zM18,50H19V51H18zM23,50H24V51H23zM29,50H30V51H29zM30,50H31V51H30zM33,50H34V51H33zM35,50H36V51H35zM38,50H39V51H38zM39,50H40V51H39zM40,50H41V51H40zM42,50H43V51H42zM45,50H46V51H45zM46,50H47V51H46zM48,50H49V51H48zM49,50H50V51H49zM50,50H51V51H50z" id="qr-path" fill="#000000" fill-opacity="1" fill-rule="nonzero" stroke="none"/></svg>