<?xml version='1.0' encoding='UTF-8'?>
<svg width="53mm" height="53mm" version="1.1" viewBox="0 0 53 53" xmlns="http://www.w3.org/2000/svg"><path d="M2,2H3V3H2zM3,2H4V3H3zM4,2H5V3H4zM5,2H6V3H5zM6,2H7V3H6zM7,2H8V3H7zM8,2H9V3H8zM11,2H12V3H11zM13,2H14V3H13zM14,2H15V3H14zM16,2H17V3H16zM17,2H18V3H17zM18,2H19V3H18zM20,2H21V3H20zM21,2H22V3H21zM22,2H23V3H22zM24,2H25V3H24zM25,2H26V3H25zM29,2H30V3H29zM30,2H31V3H30zM31,2H32V3H31zM34,2H35V3H34zM37,2H38V3H37zM39,2H40V3H39zM42,2H43V3H42zM44,2H45V3H44zM45,2H46V3H45zM46,2H47V3H46zM47,2H48V3H47zM48,2H49V3H48zM49,2H50V3H49zM50,2H51V3H50zM2,3H3V4H2zM8,3H9V4H8zM11,3H12V4H11zM12,3H13V4H12zM14,3H15V4H14zM15,3H16V4H15zM16,3H17V4H16zM19,3H20V4H19zM22,3H23V4H22zM24,3H25V4H24zM26,3H27V4H26zM27,3H28V4H27zM32,3H33V4H32zM36,3H37V4H36zM39,3H40V4H39zM40,3H41V4H40zM41,3H42V4H41zM42,3H43V4H42zM44,3H45V4H44zM50,3H51V4H50zM2,4H3V5H2zM4,4H5V5H4zM5,4H6V5H5zM6,4H7V5H6zM8,4H9V5H8zM12,4H13V5H12zM13,4H14V5H13zM14,4H15V5H14zM19,4H20V5H19zM22,4H23V5H22zM24,4H25V5H24zM25,4H26V5H25zM26,4H27V5H26zM27,4H28V5H27zM28,4H29V5H28zM30,4H31V5H30zM32,4H33V5H32zM33,4H34V5H33zM34,4H35V5H34zM35,4H36V5H35zM38,4H39V5H38zM39,4H40V5H39zM41,4H42V5H41zM42,4H43V5H42zM44,4H45V5H44zM46,4H47V5H46zM47,4H48V5H47zM48,4H49V5H48zM50,4H51V5H50zM2,5H3V6H2zM4,5H5V6H4zM5,5H6V6H5zM6,5H7V6H6zM8,5H9V6H8zM13,5H14V6H13zM17,5H18V6H17zM18,5H19V6H18zM19,5H20V6H19zM20,5H21V6H20zM22,5H23V6H22zM25,5H26V6H25zM27,5H28V6H27zM30,5H31V6H30zM32,5H33V6H32zM33,5H34V6H33zM34,5H35V6H34zM37,5H38V6H37zM38,5H39V6H38zM39,5H40V6H39zM41,5H42V6H41zM44,5H45V6H44zM46,5H47V6H46zM47,5H48V6H47zM48,5H49V6H48zM50,5H51V6H50zM2,6H3V7H2zM4,6H5V7H4zM5,6H6V7H5zM6,6H7V7H6zM8,6H9V7H8zM10,6H11V7H10zM11,6H12V7H11zM13,6H14V7H13zM14,6H15V7H14zM15,6H16V7H15zM16,6H17V7H16zM17,6H18V7H17zM20,6H21V7H20zM24,6H25V7H24zM25,6H26V7H25zM26,6H27V7H26zM27,6H28V7H27zM28,6H29V7H28zM29,6H30V7H29zM31,6H32V7H31zM33,6H34V7H33zM34,6H35V7H34zM39,6H40V7H39zM44,6H45V7H44zM46,6H47V7H46zM47,6H48V7H47zM48,6H49V7H48zM50,6H51V7H50zM2,7H3V8H2zM8,7H9V8H8zM11,7H12V8H11zM16,7H17V8H16zM18,7H19V8H18zM20,7H21V8H20zM23,7H24V8H23zM24,7H25V8H24zM28,7H29V8H28zM29,7H30V8H29zM31,7H32V8H31zM32,7H33V8H32zM37,7H38V8H37zM40,7H41V8H40zM44,7H45V8H44zM50,7H51V8H50zM2,8H3V9H2zM3,8H4V9H3zM4,8H5V9H4zM5,8H6V9H5zM6,8H7V9H6zM7,8H8V9H7zM8,8H9V9H8zM10,8H11V9H10zM12,8H13V9H12zM14,8H15V9H14zM16,8H17V9H16zM18,8H19V9H18zM20,8H21V9H20zM22,8H23V9H22zM24,8H25V9H24zM26,8H27V9H26zM28,8H29V9H28zM30,8H31V9H30zM32,8H33V9H32zM34,8H35V9H34zM36,8H37V9H36zM38,8H39V9H38zM40,8H41V9H40zM42,8H43V9H42zM44,8H45V9H44zM45,8H46V9H45zM46,8H47V9H46zM47,8H48V9H47zM48,8H49V9H48zM49,8H50V9H49zM50,8H51V9H50zM10,9H11V10H10zM11,9H12V10H11zM12,9H13V10H12zM14,9H15V10H14zM15,9H16V10H15zM18,9H19V10H18zM19,9H20V10H19zM21,9H22V10H21zM24,9H25V10H24zM28,9H29V10H28zM29,9H30V10H29zM30,9H31V10H30zM31,9H32V10H31zM33,9H34V10H33zM34,9H35V10H34zM37,9H38V10H37zM40,9H41V10H40zM4,10H5V11H4zM5,10H6V11H5zM8,10H9V11H8zM9,10H10V11H9zM10,10H11V11H10zM15,10H16V11H15zM16,10H17V11H16zM17,10H18V11H17zM19,10H20V11H19zM20,10H21V11H20zM21,10H22V11H21zM23,10H24V11H23zM24,10H25V11H24zM25,10H26V11H25zM26,10H27V11H26zM27,10H28V11H27zM28,10H29V11H28zM30,10H31V11H30zM32,10H33V11H32zM35,10H36V11H35zM36,10H37V11H36zM37,10H38V11H37zM38,10H39V11H38zM40,10H41V11H40zM43,10H44V11H43zM44,10H45V11H44zM46,10H47V11H46zM2,11H3V12H2zM5,11H6V12H5zM7,11H8V12H7zM10,11H11V12H10zM13,11H14V12H13zM16,11H17V12H16zM17,11H18V12H17zM20,11H21V12H20zM25,11H26V12H25zM28,11H29V12H28zM30,11H31V12H30zM31,11H32V12H31zM43,11H44V12H43zM44,11H45V12H44zM45,11H46V12H45zM47,11H48V12H47zM4,12H5V13H4zM5,12H6V13H5zM6,12H7V13H6zM7,12H8V13H7zM8,12H9V13H8zM11,12H12V13H11zM13,12H14V13H13zM14,12H15V13H14zM17,12H18V13H17zM19,12H20V13H19zM21,12H22V13H21zM22,12H23V13H22zM24,12H25V13H24zM25,12H26V13H25zM27,12H28V13H27zM30,12H31V13H30zM32,12H33V13H32zM34,12H35V13H34zM35,12H36V13H35zM36,12H37V13H36zM38,12H39V13H38zM41,12H42V13H41zM43,12H44V13H43zM44,12H45V13H44zM45,12H46V13H45zM47,12H48V13H47zM48,12H49V13H48zM4,13H5V14H4zM6,13H7V14H6zM9,13H10V14H9zM11,13H12V14H11zM12,13H13V14H12zM16,13H17V14H16zM18,13H19V14H18zM25,13H26V14H25zM26,13H27V14H26zM28,13H29V14H28zM32,13H33V14H32zM34,13H35V14H34zM35,13H36V14H35zM38,13H39V14H38zM41,13H42V14H41zM42,13H43V14H42zM45,13H46V14H45zM46,13H47V14H46zM47,13H48V14H47zM48,13H49V14H48zM49,13H50V14H49zM50,13H51V14H50zM4,14H5V15H4zM7,14H8V15H7zM8,14H9V15H8zM9,14H10V15H9zM10,14H11V15H10zM11,14H12V15H11zM12,14H13V15H12zM15,14H16V15H15zM18,14H19V15H18zM19,14H20V15H19zM20,14H21V15H20zM21,14H22V15H21zM24,14H25V15H24zM26,14H27V15H26zM28,14H29V15H28zM29,14H30V15H29zM30,14H31V15H30zM32,14H33V15H32zM33,14H34V15H33zM36,14H37V15H36zM37,14H38V15H37zM38,14H39V15H38zM39,14H40V15H39zM41,14H42V15H41zM42,14H43V15H42zM43,14H44V15H43zM45,14H46V15H45zM47,14H48V15H47zM48,14H49V15H48zM49,14H50V15H49zM2,15H3V16H2zM7,15H8V16H7zM9,15H10V16H9zM10,15H11V16H10zM13,15H14V16H13zM15,15H16V16H15zM16,15H17V16H16zM17,15H18V16H17zM20,15H21V16H20zM22,15H23V16H22zM24,15H25V16H24zM29,15H30V16H29zM30,15H31V16H30zM32,15H33V16H32zM33,15H34V16H33zM35,15H36V16H35zM37,15H38V16H37zM39,15H40V16H39zM40,15H41V16H40zM45,15H46V16H45zM46,15H47V16H46zM47,15H48V16H47zM48,15H49V16H48zM49,15H50V16H49zM50,15H51V16H50zM2,16H3V17H2zM7,16H8V17H7zM8,16H9V17H8zM10,16H11V17H10zM11,16H12V17H11zM17,16H18V17H17zM18,16H19V17H18zM20,16H21V17H20zM23,16H24V17H23zM24,16H25V17H24zM27,16H28V17H27zM28,16H29V17H28zM33,16H34V17H33zM35,16H36V17H35zM37,16H38V17H37zM39,16H40V17H39zM40,16H41V17H40zM44,16H45V17H44zM45,16H46V17H45zM46,16H47V17H46zM49,16H50V17H49zM2,17H3V18H2zM3,17H4V18H3zM9,17H10V18H9zM10,17H11V18H10zM11,17H12V18H11zM12,17H13V18H12zM13,17H14V18H13zM16,17H17V18H16zM17,17H18V18H17zM18,17H19V18H18zM20,17H21V18H20zM21,17H22V18H21zM23,17H24V18H23zM24,17H25V18H24zM25,17H26V18H25zM28,17H29V18H28zM30,17H31V18H30zM31,17H32V18H31zM32,17H33V18H32zM33,17H34V18H33zM35,17H36V18H35zM41,17H42V18H41zM42,17H43V18H42zM43,17H44V18H43zM46,17H47V18H46zM49,17H50V18H49zM50,17H51V18H50zM5,18H6V19H5zM7,18H8V19H7zM8,18H9V19H8zM10,18H11V19H10zM11,18H12V19H11zM12,18H13V19H12zM14,18H15V19H14zM16,18H17V19H16zM19,18H20V19H19zM20,18H21V19H20zM21,18H22V19H21zM22,18H23V19H22zM23,18H24V19H23zM25,18H26V19H25zM26,18H27V19H26zM28,18H29V19H28zM29,18H30V19H29zM30,18H31V19H30zM31,18H32V19H31zM34,18H35V19H34zM35,18H36V19H35zM39,18H40V19H39zM40,18H41V19H40zM46,18H47V19H46zM48,18H49V19H48zM2,19H3V20H2zM3,19H4V20H3zM6,19H7V20H6zM9,19H10V20H9zM11,19H12V20H11zM12,19H13V20H12zM13,19H14V20H13zM14,19H15V20H14zM17,19H18V20H17zM18,19H19V20H18zM19,19H20V20H19zM22,19H23V20H22zM25,19H26V20H25zM29,19H30V20H29zM30,19H31V20H30zM32,19H33V20H32zM33,19H34V20H33zM34,19H35V20H34zM36,19H37V20H36zM37,19H38V20H37zM38,19H39V20H38zM39,19H40V20H39zM41,19H42V20H41zM43,19H44V20H43zM45,19H46V20H45zM49,19H50V20H49zM50,19H51V20H50zM2,20H3V21H2zM4,20H5V21H4zM5,20H6V21H5zM6,20H7V21H6zM7,20H8V21H7zM8,20H9V21H8zM10,20H11V21H10zM11,20H12V21H11zM12,20H13V21H12zM14,20H15V21H14zM16,20H17V21H16zM19,20H20V21H19zM20,20H21V21H20zM23,20H24V21H23zM24,20H25V21H24zM25,20H26V21H25zM26,20H27V21H26zM27,20H28V21H27zM32,20H33V21H32zM33,20H34V21H33zM37,20H38V21H37zM38,20H39V21H38zM39,20H40V21H39zM41,20H42V21H41zM42,20H43V21H42zM47,20H48V21H47zM50,20H51V21H50zM2,21H3V22H2zM3,21H4V22H3zM7,21H8V22H7zM11,21H12V22H11zM13,21H14V22H13zM15,21H16V22H15zM17,21H18V22H17zM18,21H19V22H18zM20,21H21V22H20zM21,21H22V22H21zM22,21H23V22H22zM23,21H24V22H23zM24,21H25V22H24zM25,21H26V22H25zM26,21H27V22H26zM27,21H28V22H27zM31,21H32V22H31zM34,21H35V22H34zM35,21H36V22H35zM36,21H37V22H36zM37,21H38V22H37zM38,21H39V22H38zM39,21H40V22H39zM41,21H42V22H41zM42,21H43V22H42zM43,21H44V22H43zM45,21H46V22H45zM47,21H48V22H47zM3,22H4V23H3zM6,22H7V23H6zM8,22H9V23H8zM9,22H10V23H9zM10,22H11V23H10zM11,22H12V23H11zM12,22H13V23H12zM16,22H17V23H16zM18,22H19V23H18zM19,22H20V23H19zM22,22H23V23H22zM23,22H24V23H23zM24,22H25V23H24zM28,22H29V23H28zM31,22H32V23H31zM32,22H33V23H32zM34,22H35V23H34zM37,22H38V23H37zM40,22H41V23H40zM41,22H42V23H41zM47,22H48V23H47zM49,22H50V23H49zM6,23H7V24H6zM9,23H10V24H9zM10,23H11V24H10zM12,23H13V24H12zM14,23H15V24H14zM15,23H16V24H15zM16,23H17V24H16zM17,23H18V24H17zM18,23H19V24H18zM19,23H20V24H19zM22,23H23V24H22zM23,23H24V24H23zM25,23H26V24H25zM28,23H29V24H28zM29,23H30V24H29zM30,23H31V24H30zM31,23H32V24H31zM32,23H33V24H32zM33,23H34V24H33zM35,23H36V24H35zM43,23H44V24H43zM44,23H45V24H44zM47,23H48V24H47zM2,24H3V25H2zM4,24H5V25H4zM5,24H6V25H5zM6,24H7V25H6zM7,24H8V25H7zM8,24H9V25H8zM9,24H10V25H9zM10,24H11V25H10zM11,24H12V25H11zM12,24H13V25H12zM19,24H20V25H19zM20,24H21V25H20zM21,24H22V25H21zM23,24H24V25H23zM24,24H25V25H24zM25,24H26V25H25zM26,24H27V25H26zM27,24H28V25H27zM28,24H29V25H28zM29,24H30V25H29zM31,24H32V25H31zM32,24H33V25H32zM34,24H35V25H34zM35,24H36V25H35zM36,24H37V25H36zM37,24H38V25H37zM41,24H42V25H41zM42,24H43V25H42zM43,24H44V25H43zM44,24H45V25H44zM45,24H46V25H45zM46,24H47V25H46zM47,24H48V25H47zM48,24H49V25H48zM2,25H3V26H2zM4,25H5V26H4zM6,25H7V26H6zM10,25H11V26H10zM13,25H14V26H13zM15,25H16V26H15zM18,25H19V26H18zM19,25H20V26H19zM20,25H21V26H20zM22,25H23V26H22zM23,25H24V26H23zM24,25H25V26H24zM28,25H29V26H28zM30,25H31V26H30zM31,25H32V26H31zM33,25H34V26H33zM38,25H39V26H38zM42,25H43V26H42zM46,25H47V26H46zM48,25H49V26H48zM49,25H50V26H49zM50,25H51V26H50zM2,26H3V27H2zM4,26H5V27H4zM5,26H6V27H5zM6,26H7V27H6zM8,26H9V27H8zM10,26H11V27H10zM11,26H12V27H11zM14,26H15V27H14zM16,26H17V27H16zM17,26H18V27H17zM18,26H19V27H18zM20,26H21V27H20zM24,26H25V27H24zM26,26H27V27H26zM28,26H29V27H28zM29,26H30V27H29zM33,26H34V27H33zM34,26H35V27H34zM37,26H38V27H37zM38,26H39V27H38zM42,26H43V27H42zM44,26H45V27H44zM46,26H47V27H46zM48,26H49V27H48zM5,27H6V28H5zM6,27H7V28H6zM10,27H11V28H10zM11,27H12V28H11zM13,27H14V28H13zM14,27H15V28H14zM15,27H16V28H15zM16,27H17V28H16zM17,27H18V28H17zM18,27H19V28H18zM19,27H20V28H19zM20,27H21V28H20zM21,27H22V28H21zM22,27H23V28H22zM24,27H25V28H24zM28,27H29V28H28zM30,27H31V28H30zM31,27H32V28H31zM32,27H33V28H32zM35,27H36V28H35zM37,27H38V28H37zM38,27H39V28H38zM39,27H40V28H39zM40,27H41V28H40zM41,27H42V28H41zM42,27H43V28H42zM46,27H47V28H46zM49,27H50V28H49zM50,27H51V28H50zM4,28H5V29H4zM6,28H7V29H6zM7,28H8V29H7zM8,28H9V29H8zM9,28H10V29H9zM10,28H11V29H10zM11,28H12V29H11zM12,28H13V29H12zM15,28H16V29H15zM16,28H17V29H16zM17,28H18V29H17zM20,28H21V29H20zM22,28H23V29H22zM23,28H24V29H23zM24,28H25V29H24zM25,28H26V29H25zM26,28H27V29H26zM27,28H28V29H27zM28,28H29V29H28zM29,28H30V29H29zM30,28H31V29H30zM31,28H32V29H31zM32,28H33V29H32zM34,28H35V29H34zM35,28H36V29H35zM37,28H38V29H37zM38,28H39V29H38zM39,28H40V29H39zM40,28H41V29H40zM42,28H43V29H42zM43,28H44V29H43zM44,28H45V29H44zM45,28H46V29H45zM46,28H47V29H46zM2,29H3V30H2zM5,29H6V30H5zM7,29H8V30H7zM9,29H10V30H9zM11,29H12V30H11zM12,29H13V30H12zM15,29H16V30H15zM16,29H17V30H16zM18,29H19V30H18zM21,29H22V30H21zM23,29H24V30H23zM25,29H26V30H25zM26,29H27V30H26zM27,29H28V30H27zM28,29H29V30H28zM30,29H31V30H30zM31,29H32V30H31zM32,29H33V30H32zM33,29H34V30H33zM34,29H35V30H34zM36,29H37V30H36zM37,29H38V30H37zM39,29H40V30H39zM42,29H43V30H42zM43,29H44V30H43zM45,29H46V30H45zM47,29H48V30H47zM2,30H3V31H2zM3,30H4V31H3zM5,30H6V31H5zM6,30H7V31H6zM7,30H8V31H7zM8,30H9V31H8zM12,30H13V31H12zM13,30H14V31H13zM14,30H15V31H14zM15,30H16V31H15zM18,30H19V31H18zM21,30H22V31H21zM24,30H25V31H24zM26,30H27V31H26zM28,30H29V31H28zM30,30H31V31H30zM32,30H33V31H32zM34,30H35V31H34zM35,30H36V31H35zM39,30H40V31H39zM44,30H45V31H44zM48,30H49V31H48zM49,30H50V31H49zM3,31H4V32H3zM4,31H5V32H4zM5,31H6V32H5zM10,31H11V32H10zM12,31H13V32H12zM14,31H15V32H14zM20,31H21V32H20zM22,31H23V32H22zM25,31H26V32H25zM28,31H29V32H28zM29,31H30V32H29zM30,31H31V32H30zM32,31H33V32H32zM33,31H34V32H33zM34,31H35V32H34zM35,31H36V32H35zM36,31H37V32H36zM37,31H38V32H37zM38,31H39V32H38zM43,31H44V32H43zM47,31H48V32H47zM49,31H50V32H49zM50,31H51V32H50zM3,32H4V33H3zM4,32H5V33H4zM6,32H7V33H6zM7,32H8V33H7zM8,32H9V33H8zM9,32H10V33H9zM12,32H13V33H12zM14,32H15V33H14zM15,32H16V33H15zM18,32H19V33H18zM20,32H21V33H20zM22,32H23V33H22zM23,32H24V33H23zM26,32H27V33H26zM27,32H28V33H27zM28,32H29V33H28zM33,32H34V33H33zM35,32H36V33H35zM36,32H37V33H36zM38,32H39V33H38zM40,32H41V33H40zM41,32H42V33H41zM42,32H43V33H42zM43,32H44V33H43zM44,32H45V33H44zM47,32H48V33H47zM48,32H49V33H48zM50,32H51V33H50zM3,33H4V34H3zM4,33H5V34H4zM12,33H13V34H12zM13,33H14V34H13zM15,33H16V34H15zM16,33H17V34H16zM19,33H20V34H19zM20,33H21V34H20zM26,33H27V34H26zM27,33H28V34H27zM28,33H29V34H28zM29,33H30V34H29zM30,33H31V34H30zM33,33H34V34H33zM34,33H35V34H34zM39,33H40V34H39zM41,33H42V34H41zM42,33H43V34H42zM44,33H45V34H44zM45,33H46V34H45zM46,33H47V34H46zM47,33H48V34H47zM50,33H51V34H50zM2,34H3V35H2zM3,34H4V35H3zM6,34H7V35H6zM8,34H9V35H8zM9,34H10V35H9zM11,34H12V35H11zM12,34H13V35H12zM13,34H14V35H13zM14,34H15V35H14zM18,34H19V35H18zM20,34H21V35H20zM21,34H22V35H21zM22,34H23V35H22zM23,34H24V35H23zM26,34H27V35H26zM28,34H29V35H28zM29,34H30V35H29zM30,34H31V35H30zM31,34H32V35H31zM33,34H34V35H33zM40,34H41V35H40zM43,34H44V35H43zM44,34H45V35H44zM46,34H47V35H46zM49,34H50V35H49zM50,34H51V35H50zM4,35H5V36H4zM9,35H10V36H9zM10,35H11V36H10zM12,35H13V36H12zM13,35H14V36H13zM14,35H15V36H14zM16,35H17V36H16zM17,35H18V36H17zM21,35H22V36H21zM23,35H24V36H23zM24,35H25V36H24zM25,35H26V36H25zM26,35H27V36H26zM28,35H29V36H28zM30,35H31V36H30zM32,35H33V36H32zM33,35H34V36H33zM37,35H38V36H37zM38,35H39V36H38zM39,35H40V36H39zM42,35H43V36H42zM43,35H44V36H43zM45,35H46V36H45zM3,36H4V37H3zM6,36H7V37H6zM8,36H9V37H8zM9,36H10V37H9zM10,36H11V37H10zM11,36H12V37H11zM12,36H13V37H12zM20,36H21V37H20zM22,36H23V37H22zM23,36H24V37H23zM26,36H27V37H26zM29,36H30V37H29zM31,36H32V37H31zM34,36H35V37H34zM36,36H37V37H36zM37,36H38V37H37zM39,36H40V37H39zM41,36H42V37H41zM42,36H43V37H42zM43,36H44V37H43zM45,36H46V37H45zM2,37H3V38H2zM3,37H4V38H3zM4,37H5V38H4zM5,37H6V38H5zM9,37H10V38H9zM10,37H11V38H10zM11,37H12V38H11zM13,37H14V38H13zM17,37H18V38H17zM22,37H23V38H22zM27,37H28V38H27zM28,37H29V38H28zM29,37H30V38H29zM31,37H32V38H31zM34,37H35V38H34zM36,37H37V38H36zM37,37H38V38H37zM38,37H39V38H38zM40,37H41V38H40zM41,37H42V38H41zM44,37H45V38H44zM46,37H47V38H46zM47,37H48V38H47zM48,37H49V38H48zM50,37H51V38H50zM2,38H3V39H2zM4,38H5V39H4zM5,38H6V39H5zM7,38H8V39H7zM8,38H9V39H8zM11,38H12V39H11zM12,38H13V39H12zM13,38H14V39H13zM15,38H16V39H15zM16,38H17V39H16zM17,38H18V39H17zM20,38H21V39H20zM21,38H22V39H21zM22,38H23V39H22zM23,38H24V39H23zM25,38H26V39H25zM29,38H30V39H29zM33,38H34V39H33zM35,38H36V39H35zM36,38H37V39H36zM37,38H38V39H37zM38,38H39V39H38zM41,38H42V39H41zM42,38H43V39H42zM44,38H45V39H44zM46,38H47V39H46zM50,38H51V39H50zM6,39H7V40H6zM10,39H11V40H10zM11,39H12V40H11zM12,39H13V40H12zM13,39H14V40H13zM14,39H15V40H14zM19,39H20V40H19zM22,39H23V40H22zM24,39H25V40H24zM26,39H27V40H26zM28,39H29V40H28zM29,39H30V40H29zM31,39H32V40H31zM33,39H34V40H33zM35,39H36V40H35zM39,39H40V40H39zM40,39H41V40H40zM41,39H42V40H41zM46,39H47V40H46zM48,39H49V40H48zM50,39H51V40H50zM3,40H4V41H3zM7,40H8V41H7zM8,40H9V41H8zM9,40H10V41H9zM13,40H14V41H13zM17,40H18V41H17zM18,40H19V41H18zM19,40H20V41H19zM21,40H22V41H21zM24,40H25V41H24zM25,40H26V41H25zM26,40H27V41H26zM27,40H28V41H27zM28,40H29V41H28zM29,40H30V41H29zM32,40H33V41H32zM34,40H35V41H34zM35,40H36V41H35zM36,40H37V41H36zM39,40H40V41H39zM40,40H41V41H40zM43,40H44V41H43zM48,40H49V41H48zM49,40H50V41H49zM3,41H4V42H3zM4,41H5V42H4zM5,41H6V42H5zM9,41H10V42H9zM10,41H11V42H10zM12,41H13V42H12zM14,41H15V42H14zM16,41H17V42H16zM17,41H18V42H17zM19,41H20V42H19zM20,41H21V42H20zM21,41H22V42H21zM23,41H24V42H23zM24,41H25V42H24zM27,41H28V42H27zM30,41H31V42H30zM32,41H33V42H32zM33,41H34V42H33zM36,41H37V42H36zM37,41H38V42H37zM39,41H40V42H39zM40,41H41V42H40zM43,41H44V42H43zM45,41H46V42H45zM50,41H51V42H50zM2,42H3V43H2zM3,42H4V43H3zM4,42H5V43H4zM8,42H9V43H8zM15,42H16V43H15zM17,42H18V43H17zM19,42H20V43H19zM21,42H22V43H21zM22,42H23V43H22zM23,42H24V43H23zM24,42H25V43H24zM25,42H26V43H25zM26,42H27V43H26zM27,42H28V43H27zM28,42H29V43H28zM30,42H31V43H30zM33,42H34V43H33zM34,42H35V43H34zM36,42H37V43H36zM42,42H43V43H42zM43,42H44V43H43zM44,42H45V43H44zM45,42H46V43H45zM46,42H47V43H46zM47,42H48V43H47zM48,42H49V43H48zM49,42H50V43H49zM50,42H51V43H50zM10,43H11V44H10zM14,43H15V44H14zM18,43H19V44H18zM20,43H21V44H20zM23,43H24V44H23zM24,43H25V44H24zM28,43H29V44H28zM29,43H30V44H29zM32,43H33V44H32zM35,43H36V44H35zM37,43H38V44H37zM38,43H39V44H38zM40,43H41V44H40zM41,43H42V44H41zM42,43H43V44H42zM46,43H47V44H46zM47,43H48V44H47zM48,43H49V44H48zM49,43H50V44H49zM50,43H51V44H50zM2,44H3V45H2zM3,44H4V45H3zM4,44H5V45H4zM5,44H6V45H5zM6,44H7V45H6zM7,44H8V45H7zM8,44H9V45H8zM10,44H11V45H10zM14,44H15V45H14zM15,44H16V45H15zM16,44H17V45H16zM17,44H18V45H17zM20,44H21V45H20zM22,44H23V45H22zM23,44H24V45H23zM24,44H25V45H24zM26,44H27V45H26zM28,44H29V45H28zM32,44H33V45H32zM33,44H34V45H33zM34,44H35V45H34zM35,44H36V45H35zM38,44H39V45H38zM42,44H43V45H42zM44,44H45V45H44zM46,44H47V45H46zM47,44H48V45H47zM50,44H51V45H50zM2,45H3V46H2zM8,45H9V46H8zM11,45H12V46H11zM13,45H14V46H13zM16,45H17V46H16zM17,45H18V46H17zM22,45H23V46H22zM23,45H24V46H23zM24,45H25V46H24zM28,45H29V46H28zM30,45H31V46H30zM32,45H33V46H32zM33,45H34V46H33zM35,45H36V46H35zM38,45H39V46H38zM39,45H40V46H39zM42,45H43V46H42zM46,45H47V46H46zM47,45H48V46H47zM50,45H51V46H50zM2,46H3V47H2zM4,46H5V47H4zM5,46H6V47H5zM6,46H7V47H6zM8,46H9V47H8zM12,46H13V47H12zM13,46H14V47H13zM14,46H15V47H14zM15,46H16V47H15zM16,46H17V47H16zM17,46H18V47H17zM19,46H20V47H19zM20,46H21V47H20zM22,46H23V47H22zM24,46H25V47H24zM25,46H26V47H25zM26,46H27V47H26zM27,46H28V47H27zM28,46H29V47H28zM29,46H30V47H29zM30,46H31V47H30zM36,46H37V47H36zM37,46H38V47H37zM40,46H41V47H40zM42,46H43V47H42zM43,46H44V47H43zM44,46H45V47H44zM45,46H46V47H45zM46,46H47V47H46zM47,46H48V47H47zM49,46H50V47H49zM2,47H3V48H2zM4,47H5V48H4zM5,47H6V48H5zM6,47H7V48H6zM8,47H9V48H8zM10,47H11V48H10zM11,47H12V48H11zM15,47H16V48H15zM16,47H17V48H16zM17,47H18V48H17zM18,47H19V48H18zM19,47H20V48H19zM20,47H21V48H20zM21,47H22V48H21zM23,47H24V48H23zM24,47H25V48H24zM26,47H27V48H26zM27,47H28V48H27zM29,47H30V48H29zM31,47H32V48H31zM32,47H33V48H32zM35,47H36V48H35zM37,47H38V48H37zM38,47H39V48H38zM39,47H40V48H39zM41,47H42V48H41zM46,47H47V48H46zM47,47H48V48H47zM50,47H51V48H50zM2,48H3V49H2zM4,48H5V49H4zM5,48H6V49H5zM6,48H7V49H6zM8,48H9V49H8zM10,48H11V49H10zM11,48H12V49H11zM16,48H17V49H16zM20,48H21V49H20zM22,48H23V49H22zM24,48H25V49H24zM27,48H28V49H27zM31,48H32V49H31zM33,48H34V49H33zM34,48H35V49H34zM35,48H36V49H35zM36,48H37V49H36zM37,48H38V49H37zM39,48H40V49H39zM45,48H46V49H45zM46,48H47V49H46zM2,49H3V50H2zM8,49H9V50H8zM11,49H12V50H11zM16,49H17V50H16zM17,49H18V50H17zM18,49H19V50H18zM21,49H22V50H21zM22,49H23V50H22zM23,49H24V50H23zM24,49H25V50H24zM25,49H26V50H25zM26,49H27V50H26zM28,49H29V50H28zM29,49H30V50H29zM33,49H34V50H33zM34,49H35V50H34zM35,49H36V50H35zM36,49H37V50H36zM38,49H39V50H38zM40,49H41V50H40zM42,49H43V50H42zM43,49H44V50H43zM45,49H46V50H45zM46,49H47V50H46zM48,49H49V50H48zM2,50H3V51H2zM3,50H4V51H3zM4,50H5V51H4zM5,50H6V51H5zM6,50H7V51H6zM7,50H8V51H7zM8,50H9V51H8zM11,50H12V51H11zM12,50H13V51H12zM17,50H18V51H17zM18,50H19V51H18zM23,50H24V51H23zM33,50H34V51H33zM35,50H36V51H35zM38,50H39V51H38zM39,50H40V51H39zM40,50H41V51H40zM42,50H43V51H42zM45,50H46V51H45zM46,50H47V51H46zM48,50H49V51H48zM49,50H50V51H49zM50,50H51V51H50z" id="qr-path" fill="#000000" fill-opacity="1" fill-rule="nonzero" stroke="none"/></svg>